<mxfile host="app.diagrams.net" modified="2022-05-18T00:54:13.462Z" agent="5.0 (Macintosh; Intel Mac OS X 10_15_7) AppleWebKit/537.36 (KHTML, like Gecko) Chrome/101.0.4951.54 Safari/537.36" etag="wSAzbxhhAabyj6Ilb_Or" version="18.0.5" type="github">
  <diagram id="C5RBs43oDa-KdzZeNtuy" name="Page-1">
    <mxGraphModel dx="1960" dy="1758" grid="1" gridSize="10" guides="1" tooltips="1" connect="1" arrows="1" fold="1" page="1" pageScale="1" pageWidth="827" pageHeight="1169" math="0" shadow="0">
      <root>
        <mxCell id="WIyWlLk6GJQsqaUBKTNV-0" />
        <mxCell id="WIyWlLk6GJQsqaUBKTNV-1" parent="WIyWlLk6GJQsqaUBKTNV-0" />
        <mxCell id="8rjHVLUGmRl6VgzejmVH-151" value="" style="rounded=0.1;whiteSpace=wrap;html=1;fillColor=none;" parent="WIyWlLk6GJQsqaUBKTNV-1" vertex="1">
          <mxGeometry x="-380" y="-180" width="2250" height="3050" as="geometry" />
        </mxCell>
        <mxCell id="8rjHVLUGmRl6VgzejmVH-212" value="" style="rounded=0;whiteSpace=wrap;html=1;shadow=1;fillColor=none;" parent="WIyWlLk6GJQsqaUBKTNV-1" vertex="1">
          <mxGeometry x="2150" y="-260" width="2250" height="1780" as="geometry" />
        </mxCell>
        <mxCell id="8rjHVLUGmRl6VgzejmVH-10" value="DebugTool" style="swimlane;fontStyle=1;align=center;verticalAlign=top;childLayout=stackLayout;horizontal=1;startSize=26;horizontalStack=0;resizeParent=1;resizeParentMax=0;resizeLast=0;collapsible=1;marginBottom=0;" parent="WIyWlLk6GJQsqaUBKTNV-1" vertex="1">
          <mxGeometry x="2680" y="-500" width="160" height="60" as="geometry" />
        </mxCell>
        <mxCell id="8rjHVLUGmRl6VgzejmVH-12" value="" style="line;strokeWidth=1;fillColor=none;align=left;verticalAlign=middle;spacingTop=-1;spacingLeft=3;spacingRight=3;rotatable=0;labelPosition=right;points=[];portConstraint=eastwest;" parent="8rjHVLUGmRl6VgzejmVH-10" vertex="1">
          <mxGeometry y="26" width="160" height="8" as="geometry" />
        </mxCell>
        <mxCell id="8rjHVLUGmRl6VgzejmVH-13" value="+ debug(info): void" style="text;strokeColor=none;fillColor=none;align=left;verticalAlign=top;spacingLeft=4;spacingRight=4;overflow=hidden;rotatable=0;points=[[0,0.5],[1,0.5]];portConstraint=eastwest;" parent="8rjHVLUGmRl6VgzejmVH-10" vertex="1">
          <mxGeometry y="34" width="160" height="26" as="geometry" />
        </mxCell>
        <mxCell id="8rjHVLUGmRl6VgzejmVH-35" value="&lt;&lt;interface&gt;&gt;&#xa;ITrackSDK" style="swimlane;fontStyle=1;align=center;verticalAlign=top;childLayout=stackLayout;horizontal=1;startSize=40;horizontalStack=0;resizeParent=1;resizeParentMax=0;resizeLast=0;collapsible=1;marginBottom=0;" parent="WIyWlLk6GJQsqaUBKTNV-1" vertex="1">
          <mxGeometry x="1190" y="519" width="340" height="100" as="geometry" />
        </mxCell>
        <mxCell id="8rjHVLUGmRl6VgzejmVH-37" value="" style="line;strokeWidth=1;fillColor=none;align=left;verticalAlign=middle;spacingTop=-1;spacingLeft=3;spacingRight=3;rotatable=0;labelPosition=right;points=[];portConstraint=eastwest;" parent="8rjHVLUGmRl6VgzejmVH-35" vertex="1">
          <mxGeometry y="40" width="340" height="8" as="geometry" />
        </mxCell>
        <mxCell id="8rjHVLUGmRl6VgzejmVH-38" value="+ setUserProfileProperties(properties:Map&lt;String, Any&gt;)&#xa;+ setEventSuperProperties(properties:Ma&lt;String, Any&gt;)&#xa;+ trackEvent(eventName:String, properties:Map&lt;String, Any&gt;)" style="text;strokeColor=none;fillColor=none;align=left;verticalAlign=top;spacingLeft=4;spacingRight=4;overflow=hidden;rotatable=0;points=[[0,0.5],[1,0.5]];portConstraint=eastwest;" parent="8rjHVLUGmRl6VgzejmVH-35" vertex="1">
          <mxGeometry y="48" width="340" height="52" as="geometry" />
        </mxCell>
        <mxCell id="8rjHVLUGmRl6VgzejmVH-39" value="&lt;&lt;interface&gt;&gt;&#xa;ISettingSDK    " style="swimlane;fontStyle=1;align=center;verticalAlign=top;childLayout=stackLayout;horizontal=1;startSize=40;horizontalStack=0;resizeParent=1;resizeParentMax=0;resizeLast=0;collapsible=1;marginBottom=0;" parent="WIyWlLk6GJQsqaUBKTNV-1" vertex="1">
          <mxGeometry x="1190" y="660" width="160" height="130" as="geometry" />
        </mxCell>
        <mxCell id="8rjHVLUGmRl6VgzejmVH-41" value="" style="line;strokeWidth=1;fillColor=none;align=left;verticalAlign=middle;spacingTop=-1;spacingLeft=3;spacingRight=3;rotatable=0;labelPosition=right;points=[];portConstraint=eastwest;" parent="8rjHVLUGmRl6VgzejmVH-39" vertex="1">
          <mxGeometry y="40" width="160" height="8" as="geometry" />
        </mxCell>
        <mxCell id="8rjHVLUGmRl6VgzejmVH-42" value="+ isInitialize():Boolean&#xa;+ initialize(context:Context)&#xa;+ login(iserId)&#xa;+ logout()&#xa;+ getLoginId:String" style="text;strokeColor=none;fillColor=none;align=left;verticalAlign=top;spacingLeft=4;spacingRight=4;overflow=hidden;rotatable=0;points=[[0,0.5],[1,0.5]];portConstraint=eastwest;" parent="8rjHVLUGmRl6VgzejmVH-39" vertex="1">
          <mxGeometry y="48" width="160" height="82" as="geometry" />
        </mxCell>
        <mxCell id="8rjHVLUGmRl6VgzejmVH-45" value="MixpanelSDK" style="swimlane;fontStyle=1;align=center;verticalAlign=top;childLayout=stackLayout;horizontal=1;startSize=26;horizontalStack=0;resizeParent=1;resizeParentMax=0;resizeLast=0;collapsible=1;marginBottom=0;" parent="WIyWlLk6GJQsqaUBKTNV-1" vertex="1">
          <mxGeometry x="120" y="519" width="380" height="230" as="geometry" />
        </mxCell>
        <mxCell id="8rjHVLUGmRl6VgzejmVH-46" value="- mixpanel:Mixpanel" style="text;strokeColor=none;fillColor=none;align=left;verticalAlign=top;spacingLeft=4;spacingRight=4;overflow=hidden;rotatable=0;points=[[0,0.5],[1,0.5]];portConstraint=eastwest;" parent="8rjHVLUGmRl6VgzejmVH-45" vertex="1">
          <mxGeometry y="26" width="380" height="26" as="geometry" />
        </mxCell>
        <mxCell id="8rjHVLUGmRl6VgzejmVH-47" value="" style="line;strokeWidth=1;fillColor=none;align=left;verticalAlign=middle;spacingTop=-1;spacingLeft=3;spacingRight=3;rotatable=0;labelPosition=right;points=[];portConstraint=eastwest;" parent="8rjHVLUGmRl6VgzejmVH-45" vertex="1">
          <mxGeometry y="52" width="380" height="8" as="geometry" />
        </mxCell>
        <mxCell id="8rjHVLUGmRl6VgzejmVH-48" value="+ isInitialize():Boolean&#xa;+ initialize(context:Context)&#xa;+ login(iserId)&#xa;+ logout()&#xa;+ getLoginId:String&#xa;&#xa;+ setUserProfileProperties(properties:Map&lt;String, Any&gt;)&#xa;+ setEventSuperProperties(properties:Ma&lt;String, Any&gt;)&#xa;+ trackEvent(eventName:String, properties:Map&lt;String, Any&gt;)" style="text;strokeColor=none;fillColor=none;align=left;verticalAlign=top;spacingLeft=4;spacingRight=4;overflow=hidden;rotatable=0;points=[[0,0.5],[1,0.5]];portConstraint=eastwest;" parent="8rjHVLUGmRl6VgzejmVH-45" vertex="1">
          <mxGeometry y="60" width="380" height="170" as="geometry" />
        </mxCell>
        <mxCell id="8rjHVLUGmRl6VgzejmVH-49" value="" style="endArrow=block;dashed=1;endFill=0;endSize=12;html=1;rounded=0;entryX=-0.008;entryY=-0.02;entryDx=0;entryDy=0;entryPerimeter=0;" parent="WIyWlLk6GJQsqaUBKTNV-1" target="8rjHVLUGmRl6VgzejmVH-59" edge="1">
          <mxGeometry width="160" relative="1" as="geometry">
            <mxPoint x="500" y="562" as="sourcePoint" />
            <mxPoint x="1180" y="355" as="targetPoint" />
          </mxGeometry>
        </mxCell>
        <mxCell id="8rjHVLUGmRl6VgzejmVH-52" value="&lt;span style=&quot;color: rgba(0 , 0 , 0 , 0) ; font-family: monospace ; font-size: 0px&quot;&gt;%3CmxGraphModel%3E%3Croot%3E%3CmxCell%20id%3D%220%22%2F%3E%3CmxCell%20id%3D%221%22%20parent%3D%220%22%2F%3E%3CmxCell%20id%3D%222%22%20value%3D%22%26lt%3Bspan%26gt%3B%2B%20isInitialize()%3ABoolean%26lt%3B%2Fspan%26gt%3B%26lt%3Bbr%20style%3D%26quot%3Bpadding%3A%200px%20%3B%20margin%3A%200px%26quot%3B%26gt%3B%26lt%3Bspan%26gt%3B%2B%20initialize(context%3AContext)%26lt%3B%2Fspan%26gt%3B%26lt%3Bbr%20style%3D%26quot%3Bpadding%3A%200px%20%3B%20margin%3A%200px%26quot%3B%26gt%3B%26lt%3Bspan%26gt%3B%2B%20login(iserId)%26lt%3B%2Fspan%26gt%3B%26lt%3Bbr%20style%3D%26quot%3Bpadding%3A%200px%20%3B%20margin%3A%200px%26quot%3B%26gt%3B%26lt%3Bspan%26gt%3B%2B%20logout()%26lt%3B%2Fspan%26gt%3B%26lt%3Bbr%20style%3D%26quot%3Bpadding%3A%200px%20%3B%20margin%3A%200px%26quot%3B%26gt%3B%26lt%3Bspan%26gt%3B%2B%20getLoginId%3AString%26lt%3B%2Fspan%26gt%3B%26lt%3Bspan%26gt%3B%26lt%3Bbr%26gt%3B%2B%20setUserProfileProperties(properties%3AMap%26amp%3Blt%3BString%2C%20Any%26amp%3Bgt%3B)%26lt%3B%2Fspan%26gt%3B%26lt%3Bbr%20style%3D%26quot%3Bpadding%3A%200px%20%3B%20margin%3A%200px%26quot%3B%26gt%3B%26lt%3Bspan%26gt%3B%2B%20setEventSuperProperties(properties%3AMa%26amp%3Blt%3BString%2C%20Any%26amp%3Bgt%3B)%26lt%3B%2Fspan%26gt%3B%26lt%3Bbr%20style%3D%26quot%3Bpadding%3A%200px%20%3B%20margin%3A%200px%26quot%3B%26gt%3B%26lt%3Bspan%26gt%3B%2B%20trackEvent(eventName%3AString%2C%20properties%3AMap%26amp%3Blt%3BString%2C%20Any%26amp%3Bgt%3B)%26lt%3B%2Fspan%26gt%3B%22%20style%3D%22text%3Bhtml%3D1%3Balign%3Dleft%3BverticalAlign%3Dmiddle%3Bresizable%3D0%3Bpoints%3D%5B%5D%3Bautosize%3D1%3BstrokeColor%3Dnone%3BfillColor%3Dnone%3B%22%20vertex%3D%221%22%20parent%3D%221%22%3E%3CmxGeometry%20x%3D%22530%22%20y%3D%22397%22%20width%3D%22297%22%20height%3D%22120%22%20as%3D%22geometry%22%2F%3E%3C%2FmxCell%3E%3C%2Froot%3E%3C%2FmxGraphModel%3E&lt;/span&gt;" style="text;html=1;align=center;verticalAlign=middle;resizable=0;points=[];autosize=1;strokeColor=none;fillColor=none;" parent="WIyWlLk6GJQsqaUBKTNV-1" vertex="1">
          <mxGeometry x="1310" y="378" width="20" height="20" as="geometry" />
        </mxCell>
        <mxCell id="8rjHVLUGmRl6VgzejmVH-56" value="&lt;&lt;interface&gt;&gt;&#xa;ISDK" style="swimlane;fontStyle=1;align=center;verticalAlign=top;childLayout=stackLayout;horizontal=1;startSize=38;horizontalStack=0;resizeParent=1;resizeParentMax=0;resizeLast=0;collapsible=1;marginBottom=0;" parent="WIyWlLk6GJQsqaUBKTNV-1" vertex="1">
          <mxGeometry x="710" y="519" width="360" height="196" as="geometry" />
        </mxCell>
        <mxCell id="8rjHVLUGmRl6VgzejmVH-58" value="" style="line;strokeWidth=1;fillColor=none;align=left;verticalAlign=middle;spacingTop=-1;spacingLeft=3;spacingRight=3;rotatable=0;labelPosition=right;points=[];portConstraint=eastwest;" parent="8rjHVLUGmRl6VgzejmVH-56" vertex="1">
          <mxGeometry y="38" width="360" height="8" as="geometry" />
        </mxCell>
        <mxCell id="8rjHVLUGmRl6VgzejmVH-59" value="+ isInitialize():Boolean&#xa;+ initialize(context:Context)&#xa;+ login(iserId)&#xa;+ logout()&#xa;+ getLoginId:String&#xa;&#xa;+ setUserProfileProperties(properties:Map&lt;String, Any&gt;)&#xa;+ setEventSuperProperties(properties:Ma&lt;String, Any&gt;)&#xa;+ trackEvent(eventName:String, properties:Map&lt;String, Any&gt;)" style="text;strokeColor=none;fillColor=none;align=left;verticalAlign=top;spacingLeft=4;spacingRight=4;overflow=hidden;rotatable=0;points=[[0,0.5],[1,0.5]];portConstraint=eastwest;" parent="8rjHVLUGmRl6VgzejmVH-56" vertex="1">
          <mxGeometry y="46" width="360" height="150" as="geometry" />
        </mxCell>
        <mxCell id="8rjHVLUGmRl6VgzejmVH-62" value="&lt;&lt;interface&gt;&gt;&#xa;IKKEventTracker" style="swimlane;fontStyle=1;align=center;verticalAlign=top;childLayout=stackLayout;horizontal=1;startSize=44;horizontalStack=0;resizeParent=1;resizeParentMax=0;resizeLast=0;collapsible=1;marginBottom=0;" parent="WIyWlLk6GJQsqaUBKTNV-1" vertex="1">
          <mxGeometry x="924" y="910" width="730" height="120" as="geometry" />
        </mxCell>
        <mxCell id="8rjHVLUGmRl6VgzejmVH-64" value="" style="line;strokeWidth=1;fillColor=none;align=left;verticalAlign=middle;spacingTop=-1;spacingLeft=3;spacingRight=3;rotatable=0;labelPosition=right;points=[];portConstraint=eastwest;" parent="8rjHVLUGmRl6VgzejmVH-62" vertex="1">
          <mxGeometry y="44" width="730" height="8" as="geometry" />
        </mxCell>
        <mxCell id="8rjHVLUGmRl6VgzejmVH-65" value="+ setEventSuperProperties(properties:Map&lt;out IEventSuperProperties, PropertyValue&gt;)&#xa;+ trackEvent(type:IEventType, page:IEventPage, component:IEventComponent, properties:Map&lt;out IEventProperties, PropertyValue&gt;)&#xa;+ trackEvent(name:String, properties:Map&lt;String, Any&gt;" style="text;strokeColor=none;fillColor=none;align=left;verticalAlign=top;spacingLeft=4;spacingRight=4;overflow=hidden;rotatable=0;points=[[0,0.5],[1,0.5]];portConstraint=eastwest;" parent="8rjHVLUGmRl6VgzejmVH-62" vertex="1">
          <mxGeometry y="52" width="730" height="68" as="geometry" />
        </mxCell>
        <mxCell id="8rjHVLUGmRl6VgzejmVH-69" value="KKEventTracker" style="swimlane;fontStyle=1;align=center;verticalAlign=top;childLayout=stackLayout;horizontal=1;startSize=26;horizontalStack=0;resizeParent=1;resizeParentMax=0;resizeLast=0;collapsible=1;marginBottom=0;" parent="WIyWlLk6GJQsqaUBKTNV-1" vertex="1">
          <mxGeometry y="910" width="740" height="178" as="geometry" />
        </mxCell>
        <mxCell id="8rjHVLUGmRl6VgzejmVH-70" value="- sdk:ITrackSdk&#xa;- debugTool:DebugTool" style="text;strokeColor=none;fillColor=none;align=left;verticalAlign=top;spacingLeft=4;spacingRight=4;overflow=hidden;rotatable=0;points=[[0,0.5],[1,0.5]];portConstraint=eastwest;" parent="8rjHVLUGmRl6VgzejmVH-69" vertex="1">
          <mxGeometry y="26" width="740" height="44" as="geometry" />
        </mxCell>
        <mxCell id="8rjHVLUGmRl6VgzejmVH-71" value="" style="line;strokeWidth=1;fillColor=none;align=left;verticalAlign=middle;spacingTop=-1;spacingLeft=3;spacingRight=3;rotatable=0;labelPosition=right;points=[];portConstraint=eastwest;" parent="8rjHVLUGmRl6VgzejmVH-69" vertex="1">
          <mxGeometry y="70" width="740" height="8" as="geometry" />
        </mxCell>
        <mxCell id="8rjHVLUGmRl6VgzejmVH-72" value="+ constructor(sdk:ITrackSdk, debugTool:DebugTool)&#xa;+ setEventSuperProperties(properties:Map&lt;out IEventSuperProperties, PropertyValue&gt;)&#xa;+ trackEvent(type:IEventType, page:IEventPage, component:IEventComponent, properties:Map&lt;out IEventProperties, PropertyValue&gt;)&#xa;+ trackEvent(name:String, properties:Map&lt;String, Any&gt;" style="text;strokeColor=none;fillColor=none;align=left;verticalAlign=top;spacingLeft=4;spacingRight=4;overflow=hidden;rotatable=0;points=[[0,0.5],[1,0.5]];portConstraint=eastwest;" parent="8rjHVLUGmRl6VgzejmVH-69" vertex="1">
          <mxGeometry y="78" width="740" height="100" as="geometry" />
        </mxCell>
        <mxCell id="8rjHVLUGmRl6VgzejmVH-74" value="" style="endArrow=block;dashed=1;endFill=0;endSize=12;html=1;rounded=0;entryX=0;entryY=0.25;entryDx=0;entryDy=0;" parent="WIyWlLk6GJQsqaUBKTNV-1" target="8rjHVLUGmRl6VgzejmVH-62" edge="1">
          <mxGeometry width="160" relative="1" as="geometry">
            <mxPoint x="740" y="940" as="sourcePoint" />
            <mxPoint x="1720" y="1480" as="targetPoint" />
          </mxGeometry>
        </mxCell>
        <mxCell id="8rjHVLUGmRl6VgzejmVH-75" value="&lt;&lt;interface&gt;&gt;&#xa;IKKUserTracker" style="swimlane;fontStyle=1;align=center;verticalAlign=top;childLayout=stackLayout;horizontal=1;startSize=44;horizontalStack=0;resizeParent=1;resizeParentMax=0;resizeLast=0;collapsible=1;marginBottom=0;" parent="WIyWlLk6GJQsqaUBKTNV-1" vertex="1">
          <mxGeometry x="924" y="1300" width="730" height="120" as="geometry" />
        </mxCell>
        <mxCell id="8rjHVLUGmRl6VgzejmVH-76" value="" style="line;strokeWidth=1;fillColor=none;align=left;verticalAlign=middle;spacingTop=-1;spacingLeft=3;spacingRight=3;rotatable=0;labelPosition=right;points=[];portConstraint=eastwest;" parent="8rjHVLUGmRl6VgzejmVH-75" vertex="1">
          <mxGeometry y="44" width="730" height="8" as="geometry" />
        </mxCell>
        <mxCell id="8rjHVLUGmRl6VgzejmVH-77" value="+ setUserProfileProperties(properties:Map&lt;out IUserProperties, PropertyValue)" style="text;strokeColor=none;fillColor=none;align=left;verticalAlign=top;spacingLeft=4;spacingRight=4;overflow=hidden;rotatable=0;points=[[0,0.5],[1,0.5]];portConstraint=eastwest;" parent="8rjHVLUGmRl6VgzejmVH-75" vertex="1">
          <mxGeometry y="52" width="730" height="68" as="geometry" />
        </mxCell>
        <mxCell id="8rjHVLUGmRl6VgzejmVH-78" value="KKUserTracker" style="swimlane;fontStyle=1;align=center;verticalAlign=top;childLayout=stackLayout;horizontal=1;startSize=26;horizontalStack=0;resizeParent=1;resizeParentMax=0;resizeLast=0;collapsible=1;marginBottom=0;" parent="WIyWlLk6GJQsqaUBKTNV-1" vertex="1">
          <mxGeometry x="-210" y="1240" width="730" height="94" as="geometry" />
        </mxCell>
        <mxCell id="8rjHVLUGmRl6VgzejmVH-79" value="- sdk:ITrackSdk&#xa;- debugTool:DebugTool" style="text;strokeColor=none;fillColor=none;align=left;verticalAlign=top;spacingLeft=4;spacingRight=4;overflow=hidden;rotatable=0;points=[[0,0.5],[1,0.5]];portConstraint=eastwest;" parent="8rjHVLUGmRl6VgzejmVH-78" vertex="1">
          <mxGeometry y="26" width="730" height="34" as="geometry" />
        </mxCell>
        <mxCell id="8rjHVLUGmRl6VgzejmVH-80" value="" style="line;strokeWidth=1;fillColor=none;align=left;verticalAlign=middle;spacingTop=-1;spacingLeft=3;spacingRight=3;rotatable=0;labelPosition=right;points=[];portConstraint=eastwest;" parent="8rjHVLUGmRl6VgzejmVH-78" vertex="1">
          <mxGeometry y="60" width="730" height="8" as="geometry" />
        </mxCell>
        <mxCell id="8rjHVLUGmRl6VgzejmVH-81" value="+ setUserProfileProperties(properties:Map&lt;out IUserProperties, PropertyValue)" style="text;strokeColor=none;fillColor=none;align=left;verticalAlign=top;spacingLeft=4;spacingRight=4;overflow=hidden;rotatable=0;points=[[0,0.5],[1,0.5]];portConstraint=eastwest;" parent="8rjHVLUGmRl6VgzejmVH-78" vertex="1">
          <mxGeometry y="68" width="730" height="26" as="geometry" />
        </mxCell>
        <mxCell id="8rjHVLUGmRl6VgzejmVH-82" value="" style="endArrow=block;dashed=1;endFill=0;endSize=12;html=1;rounded=0;entryX=0;entryY=0.167;entryDx=0;entryDy=0;exitX=1;exitY=0.5;exitDx=0;exitDy=0;entryPerimeter=0;" parent="WIyWlLk6GJQsqaUBKTNV-1" source="8rjHVLUGmRl6VgzejmVH-81" target="8rjHVLUGmRl6VgzejmVH-75" edge="1">
          <mxGeometry width="160" relative="1" as="geometry">
            <mxPoint x="1610" y="1521.004" as="sourcePoint" />
            <mxPoint x="1780" y="1520" as="targetPoint" />
          </mxGeometry>
        </mxCell>
        <mxCell id="8rjHVLUGmRl6VgzejmVH-83" value="&lt;&lt;abstract&gt;&gt;&#xa;BaseTracker" style="swimlane;fontStyle=1;align=center;verticalAlign=top;childLayout=stackLayout;horizontal=1;startSize=40;horizontalStack=0;resizeParent=1;resizeParentMax=0;resizeLast=0;collapsible=1;marginBottom=0;" parent="WIyWlLk6GJQsqaUBKTNV-1" vertex="1">
          <mxGeometry x="780" y="1120" width="340" height="140" as="geometry" />
        </mxCell>
        <mxCell id="8rjHVLUGmRl6VgzejmVH-84" value="- PROPERTY_HAS_WRONG_TYPE:String&#xa;- ERROR_PROPERTY_TYPE:String" style="text;strokeColor=none;fillColor=none;align=left;verticalAlign=top;spacingLeft=4;spacingRight=4;overflow=hidden;rotatable=0;points=[[0,0.5],[1,0.5]];portConstraint=eastwest;" parent="8rjHVLUGmRl6VgzejmVH-83" vertex="1">
          <mxGeometry y="40" width="340" height="40" as="geometry" />
        </mxCell>
        <mxCell id="8rjHVLUGmRl6VgzejmVH-85" value="" style="line;strokeWidth=1;fillColor=none;align=left;verticalAlign=middle;spacingTop=-1;spacingLeft=3;spacingRight=3;rotatable=0;labelPosition=right;points=[];portConstraint=eastwest;" parent="8rjHVLUGmRl6VgzejmVH-83" vertex="1">
          <mxGeometry y="80" width="340" height="8" as="geometry" />
        </mxCell>
        <mxCell id="8rjHVLUGmRl6VgzejmVH-86" value="# checkPropertiesType(properties:Map&lt;*,*&gt;)&#xa;- checkPropertyType(proerty:Map.Entry&lt;IProperties, Any&gt;)" style="text;strokeColor=none;fillColor=none;align=left;verticalAlign=top;spacingLeft=4;spacingRight=4;overflow=hidden;rotatable=0;points=[[0,0.5],[1,0.5]];portConstraint=eastwest;" parent="8rjHVLUGmRl6VgzejmVH-83" vertex="1">
          <mxGeometry y="88" width="340" height="52" as="geometry" />
        </mxCell>
        <mxCell id="8rjHVLUGmRl6VgzejmVH-88" value="Extends" style="endArrow=block;endSize=16;endFill=0;html=1;rounded=0;entryX=0;entryY=0.5;entryDx=0;entryDy=0;exitX=0.75;exitY=0;exitDx=0;exitDy=0;" parent="WIyWlLk6GJQsqaUBKTNV-1" source="8rjHVLUGmRl6VgzejmVH-78" target="8rjHVLUGmRl6VgzejmVH-84" edge="1">
          <mxGeometry width="160" relative="1" as="geometry">
            <mxPoint x="1600" y="1499.01" as="sourcePoint" />
            <mxPoint x="1817.96" y="1520.99" as="targetPoint" />
            <Array as="points">
              <mxPoint x="338" y="1180" />
            </Array>
          </mxGeometry>
        </mxCell>
        <mxCell id="8rjHVLUGmRl6VgzejmVH-89" value="&lt;&lt;interface&gt;&gt;&#xa;IKKTracker" style="swimlane;fontStyle=1;align=center;verticalAlign=top;childLayout=stackLayout;horizontal=1;startSize=40;horizontalStack=0;resizeParent=1;resizeParentMax=0;resizeLast=0;collapsible=1;marginBottom=0;" parent="WIyWlLk6GJQsqaUBKTNV-1" vertex="1">
          <mxGeometry x="640" y="20" width="790" height="224" as="geometry" />
        </mxCell>
        <mxCell id="8rjHVLUGmRl6VgzejmVH-91" value="" style="line;strokeWidth=1;fillColor=none;align=left;verticalAlign=middle;spacingTop=-1;spacingLeft=3;spacingRight=3;rotatable=0;labelPosition=right;points=[];portConstraint=eastwest;" parent="8rjHVLUGmRl6VgzejmVH-89" vertex="1">
          <mxGeometry y="40" width="790" height="8" as="geometry" />
        </mxCell>
        <mxCell id="8rjHVLUGmRl6VgzejmVH-92" value="++ isInitialize():Boolean&#xa;+ initialize(context:Context)&#xa;+ login(iserId)&#xa;+ logout()&#xa;+ getLoginId:String&#xa;&#xa;+ setEventSuperProperties(properties:Map&lt;out IEventSuperProperties, PropertyValue&gt;)&#xa;+ trackEvent(type:IEventType, page:IEventPage, component:IEventComponent, properties:Map&lt;out IEventProperties, PropertyValue&gt;)&#xa;+ trackEvent(name:String, properties:Map&lt;String, Any&gt;&#xa;&#xa;+ setUserProfileProperties(properties:Map&lt;out IUserProperties, PropertyValue)" style="text;strokeColor=none;fillColor=none;align=left;verticalAlign=top;spacingLeft=4;spacingRight=4;overflow=hidden;rotatable=0;points=[[0,0.5],[1,0.5]];portConstraint=eastwest;" parent="8rjHVLUGmRl6VgzejmVH-89" vertex="1">
          <mxGeometry y="48" width="790" height="176" as="geometry" />
        </mxCell>
        <mxCell id="8rjHVLUGmRl6VgzejmVH-93" value="KKTracker" style="swimlane;fontStyle=1;align=center;verticalAlign=top;childLayout=stackLayout;horizontal=1;startSize=26;horizontalStack=0;resizeParent=1;resizeParentMax=0;resizeLast=0;collapsible=1;marginBottom=0;" parent="WIyWlLk6GJQsqaUBKTNV-1" vertex="1">
          <mxGeometry x="-280" y="20" width="730" height="350" as="geometry" />
        </mxCell>
        <mxCell id="8rjHVLUGmRl6VgzejmVH-94" value="- debugTool:DebugTool&#xa;- sdk:ISDK&#xa;- kkeventTracker:IKKEventTracker&#xa;- kkUserTracker:IKKUserTracker" style="text;strokeColor=none;fillColor=none;align=left;verticalAlign=top;spacingLeft=4;spacingRight=4;overflow=hidden;rotatable=0;points=[[0,0.5],[1,0.5]];portConstraint=eastwest;" parent="8rjHVLUGmRl6VgzejmVH-93" vertex="1">
          <mxGeometry y="26" width="730" height="104" as="geometry" />
        </mxCell>
        <mxCell id="8rjHVLUGmRl6VgzejmVH-95" value="" style="line;strokeWidth=1;fillColor=none;align=left;verticalAlign=middle;spacingTop=-1;spacingLeft=3;spacingRight=3;rotatable=0;labelPosition=right;points=[];portConstraint=eastwest;" parent="8rjHVLUGmRl6VgzejmVH-93" vertex="1">
          <mxGeometry y="130" width="730" height="8" as="geometry" />
        </mxCell>
        <mxCell id="8rjHVLUGmRl6VgzejmVH-96" value="+ constructor()&#xa;&#xa;+ isInitialize():Boolean&#xa;+ initialize(context:Context)&#xa;+ login(iserId)&#xa;+ logout()&#xa;+ getLoginId:String&#xa;&#xa;+ setEventSuperProperties(properties:Map&lt;out IEventSuperProperties, PropertyValue&gt;)&#xa;+ trackEvent(type:IEventType, page:IEventPage, component:IEventComponent, properties:Map&lt;out IEventProperties, PropertyValue&gt;)&#xa;+ trackEvent(name:String, properties:Map&lt;String, Any&gt;&#xa;&#xa;+ setUserProfileProperties(properties:Map&lt;out IUserProperties, PropertyValue)" style="text;strokeColor=none;fillColor=none;align=left;verticalAlign=top;spacingLeft=4;spacingRight=4;overflow=hidden;rotatable=0;points=[[0,0.5],[1,0.5]];portConstraint=eastwest;" parent="8rjHVLUGmRl6VgzejmVH-93" vertex="1">
          <mxGeometry y="138" width="730" height="212" as="geometry" />
        </mxCell>
        <mxCell id="8rjHVLUGmRl6VgzejmVH-100" value="" style="endArrow=block;dashed=1;endFill=0;endSize=12;html=1;rounded=0;exitX=1.003;exitY=0.122;exitDx=0;exitDy=0;exitPerimeter=0;entryX=0;entryY=0.21;entryDx=0;entryDy=0;entryPerimeter=0;" parent="WIyWlLk6GJQsqaUBKTNV-1" source="8rjHVLUGmRl6VgzejmVH-56" target="8rjHVLUGmRl6VgzejmVH-35" edge="1">
          <mxGeometry width="160" relative="1" as="geometry">
            <mxPoint x="1060" y="540" as="sourcePoint" />
            <mxPoint x="1190" y="548" as="targetPoint" />
          </mxGeometry>
        </mxCell>
        <mxCell id="8rjHVLUGmRl6VgzejmVH-101" value="" style="endArrow=block;dashed=1;endFill=0;endSize=12;html=1;rounded=0;exitX=1.014;exitY=0.847;exitDx=0;exitDy=0;exitPerimeter=0;entryX=0;entryY=0.25;entryDx=0;entryDy=0;" parent="WIyWlLk6GJQsqaUBKTNV-1" source="8rjHVLUGmRl6VgzejmVH-59" target="8rjHVLUGmRl6VgzejmVH-39" edge="1">
          <mxGeometry width="160" relative="1" as="geometry">
            <mxPoint x="1069.9999999999998" y="670.008" as="sourcePoint" />
            <mxPoint x="1187.84" y="670" as="targetPoint" />
          </mxGeometry>
        </mxCell>
        <mxCell id="8rjHVLUGmRl6VgzejmVH-102" value="" style="endArrow=block;dashed=1;endFill=0;endSize=12;html=1;rounded=0;entryX=-0.004;entryY=0.156;entryDx=0;entryDy=0;entryPerimeter=0;exitX=1.003;exitY=0.135;exitDx=0;exitDy=0;exitPerimeter=0;" parent="WIyWlLk6GJQsqaUBKTNV-1" source="8rjHVLUGmRl6VgzejmVH-94" target="8rjHVLUGmRl6VgzejmVH-89" edge="1">
          <mxGeometry width="160" relative="1" as="geometry">
            <mxPoint x="380" y="110" as="sourcePoint" />
            <mxPoint x="587.1199999999999" y="110" as="targetPoint" />
          </mxGeometry>
        </mxCell>
        <mxCell id="8rjHVLUGmRl6VgzejmVH-107" value="Extends" style="endArrow=block;endSize=16;endFill=0;html=1;rounded=0;entryX=0;entryY=0.25;entryDx=0;entryDy=0;" parent="WIyWlLk6GJQsqaUBKTNV-1" target="8rjHVLUGmRl6VgzejmVH-83" edge="1">
          <mxGeometry width="160" relative="1" as="geometry">
            <mxPoint x="340" y="1090" as="sourcePoint" />
            <mxPoint x="520" y="1150" as="targetPoint" />
            <Array as="points">
              <mxPoint x="340" y="1150" />
            </Array>
          </mxGeometry>
        </mxCell>
        <mxCell id="8rjHVLUGmRl6VgzejmVH-108" value="" style="endArrow=block;dashed=1;endFill=0;endSize=12;html=1;rounded=0;entryX=1;entryY=0.25;entryDx=0;entryDy=0;exitX=1.001;exitY=0.818;exitDx=0;exitDy=0;exitPerimeter=0;" parent="WIyWlLk6GJQsqaUBKTNV-1" source="8rjHVLUGmRl6VgzejmVH-92" target="8rjHVLUGmRl6VgzejmVH-39" edge="1">
          <mxGeometry width="160" relative="1" as="geometry">
            <mxPoint x="1430" y="100" as="sourcePoint" />
            <mxPoint x="1560" y="820" as="targetPoint" />
            <Array as="points">
              <mxPoint x="1560" y="240" />
              <mxPoint x="1560" y="693" />
            </Array>
          </mxGeometry>
        </mxCell>
        <mxCell id="8rjHVLUGmRl6VgzejmVH-109" value="" style="endArrow=block;dashed=1;endFill=0;endSize=12;html=1;rounded=0;entryX=1.003;entryY=0.308;entryDx=0;entryDy=0;entryPerimeter=0;" parent="WIyWlLk6GJQsqaUBKTNV-1" target="8rjHVLUGmRl6VgzejmVH-62" edge="1">
          <mxGeometry width="160" relative="1" as="geometry">
            <mxPoint x="1430" y="156" as="sourcePoint" />
            <mxPoint x="1650" y="940" as="targetPoint" />
            <Array as="points">
              <mxPoint x="1720" y="156" />
              <mxPoint x="1720" y="950" />
            </Array>
          </mxGeometry>
        </mxCell>
        <mxCell id="8rjHVLUGmRl6VgzejmVH-110" value="" style="endArrow=block;dashed=1;endFill=0;endSize=12;html=1;rounded=0;entryX=1;entryY=0.175;entryDx=0;entryDy=0;entryPerimeter=0;" parent="WIyWlLk6GJQsqaUBKTNV-1" target="8rjHVLUGmRl6VgzejmVH-75" edge="1">
          <mxGeometry width="160" relative="1" as="geometry">
            <mxPoint x="1430" y="70" as="sourcePoint" />
            <mxPoint x="1656.1899999999996" y="851.96" as="targetPoint" />
            <Array as="points">
              <mxPoint x="1780" y="70" />
              <mxPoint x="1780" y="1321" />
            </Array>
          </mxGeometry>
        </mxCell>
        <mxCell id="8rjHVLUGmRl6VgzejmVH-111" value="&lt;&lt;interace&gt;&gt;&#xa;IEventType" style="swimlane;fontStyle=1;align=center;verticalAlign=top;childLayout=stackLayout;horizontal=1;startSize=40;horizontalStack=0;resizeParent=1;resizeParentMax=0;resizeLast=0;collapsible=1;marginBottom=0;" parent="WIyWlLk6GJQsqaUBKTNV-1" vertex="1">
          <mxGeometry x="1520" y="1600" width="160" height="74" as="geometry" />
        </mxCell>
        <mxCell id="8rjHVLUGmRl6VgzejmVH-112" value="+ value:String" style="text;strokeColor=none;fillColor=none;align=left;verticalAlign=top;spacingLeft=4;spacingRight=4;overflow=hidden;rotatable=0;points=[[0,0.5],[1,0.5]];portConstraint=eastwest;" parent="8rjHVLUGmRl6VgzejmVH-111" vertex="1">
          <mxGeometry y="40" width="160" height="26" as="geometry" />
        </mxCell>
        <mxCell id="8rjHVLUGmRl6VgzejmVH-113" value="" style="line;strokeWidth=1;fillColor=none;align=left;verticalAlign=middle;spacingTop=-1;spacingLeft=3;spacingRight=3;rotatable=0;labelPosition=right;points=[];portConstraint=eastwest;" parent="8rjHVLUGmRl6VgzejmVH-111" vertex="1">
          <mxGeometry y="66" width="160" height="8" as="geometry" />
        </mxCell>
        <mxCell id="8rjHVLUGmRl6VgzejmVH-115" value="&lt;&lt;enum class&gt;&gt;&#xa;EventType" style="swimlane;fontStyle=1;align=center;verticalAlign=top;childLayout=stackLayout;horizontal=1;startSize=40;horizontalStack=0;resizeParent=1;resizeParentMax=0;resizeLast=0;collapsible=1;marginBottom=0;" parent="WIyWlLk6GJQsqaUBKTNV-1" vertex="1">
          <mxGeometry x="1241" y="1600" width="160" height="118" as="geometry" />
        </mxCell>
        <mxCell id="8rjHVLUGmRl6VgzejmVH-116" value="+ CLICK&#xa;+ IMPRESSION&#xa;+ VIEW&#xa;+ DISAPPEAR" style="text;strokeColor=none;fillColor=none;align=left;verticalAlign=top;spacingLeft=4;spacingRight=4;overflow=hidden;rotatable=0;points=[[0,0.5],[1,0.5]];portConstraint=eastwest;" parent="8rjHVLUGmRl6VgzejmVH-115" vertex="1">
          <mxGeometry y="40" width="160" height="70" as="geometry" />
        </mxCell>
        <mxCell id="8rjHVLUGmRl6VgzejmVH-117" value="" style="line;strokeWidth=1;fillColor=none;align=left;verticalAlign=middle;spacingTop=-1;spacingLeft=3;spacingRight=3;rotatable=0;labelPosition=right;points=[];portConstraint=eastwest;" parent="8rjHVLUGmRl6VgzejmVH-115" vertex="1">
          <mxGeometry y="110" width="160" height="8" as="geometry" />
        </mxCell>
        <mxCell id="8rjHVLUGmRl6VgzejmVH-120" value="" style="endArrow=block;dashed=1;endFill=0;endSize=12;html=1;rounded=0;entryX=0;entryY=0.25;entryDx=0;entryDy=0;exitX=1.019;exitY=0.169;exitDx=0;exitDy=0;exitPerimeter=0;" parent="WIyWlLk6GJQsqaUBKTNV-1" source="8rjHVLUGmRl6VgzejmVH-115" target="8rjHVLUGmRl6VgzejmVH-111" edge="1">
          <mxGeometry width="160" relative="1" as="geometry">
            <mxPoint x="1030" y="1570" as="sourcePoint" />
            <mxPoint x="1190" y="1570" as="targetPoint" />
          </mxGeometry>
        </mxCell>
        <mxCell id="8rjHVLUGmRl6VgzejmVH-121" value="&lt;&lt;interace&gt;&gt;&#xa;IEventPage" style="swimlane;fontStyle=1;align=center;verticalAlign=top;childLayout=stackLayout;horizontal=1;startSize=40;horizontalStack=0;resizeParent=1;resizeParentMax=0;resizeLast=0;collapsible=1;marginBottom=0;" parent="WIyWlLk6GJQsqaUBKTNV-1" vertex="1">
          <mxGeometry x="1520" y="1710" width="160" height="74" as="geometry" />
        </mxCell>
        <mxCell id="8rjHVLUGmRl6VgzejmVH-122" value="+ value:String" style="text;strokeColor=none;fillColor=none;align=left;verticalAlign=top;spacingLeft=4;spacingRight=4;overflow=hidden;rotatable=0;points=[[0,0.5],[1,0.5]];portConstraint=eastwest;" parent="8rjHVLUGmRl6VgzejmVH-121" vertex="1">
          <mxGeometry y="40" width="160" height="26" as="geometry" />
        </mxCell>
        <mxCell id="8rjHVLUGmRl6VgzejmVH-123" value="" style="line;strokeWidth=1;fillColor=none;align=left;verticalAlign=middle;spacingTop=-1;spacingLeft=3;spacingRight=3;rotatable=0;labelPosition=right;points=[];portConstraint=eastwest;" parent="8rjHVLUGmRl6VgzejmVH-121" vertex="1">
          <mxGeometry y="66" width="160" height="8" as="geometry" />
        </mxCell>
        <mxCell id="8rjHVLUGmRl6VgzejmVH-124" value="&lt;&lt;interace&gt;&gt;&#xa;IEventComponent" style="swimlane;fontStyle=1;align=center;verticalAlign=top;childLayout=stackLayout;horizontal=1;startSize=40;horizontalStack=0;resizeParent=1;resizeParentMax=0;resizeLast=0;collapsible=1;marginBottom=0;" parent="WIyWlLk6GJQsqaUBKTNV-1" vertex="1">
          <mxGeometry x="1520" y="1830" width="160" height="74" as="geometry" />
        </mxCell>
        <mxCell id="8rjHVLUGmRl6VgzejmVH-125" value="+ value:String" style="text;strokeColor=none;fillColor=none;align=left;verticalAlign=top;spacingLeft=4;spacingRight=4;overflow=hidden;rotatable=0;points=[[0,0.5],[1,0.5]];portConstraint=eastwest;" parent="8rjHVLUGmRl6VgzejmVH-124" vertex="1">
          <mxGeometry y="40" width="160" height="26" as="geometry" />
        </mxCell>
        <mxCell id="8rjHVLUGmRl6VgzejmVH-126" value="" style="line;strokeWidth=1;fillColor=none;align=left;verticalAlign=middle;spacingTop=-1;spacingLeft=3;spacingRight=3;rotatable=0;labelPosition=right;points=[];portConstraint=eastwest;" parent="8rjHVLUGmRl6VgzejmVH-124" vertex="1">
          <mxGeometry y="66" width="160" height="8" as="geometry" />
        </mxCell>
        <mxCell id="8rjHVLUGmRl6VgzejmVH-127" value="&lt;&lt;interface&gt;&gt;&#xa;IProperties" style="swimlane;fontStyle=1;align=center;verticalAlign=top;childLayout=stackLayout;horizontal=1;startSize=40;horizontalStack=0;resizeParent=1;resizeParentMax=0;resizeLast=0;collapsible=1;marginBottom=0;" parent="WIyWlLk6GJQsqaUBKTNV-1" vertex="1">
          <mxGeometry x="1360" y="2090" width="160" height="88" as="geometry" />
        </mxCell>
        <mxCell id="8rjHVLUGmRl6VgzejmVH-128" value="+ keyName:String&#xa;+ valueType:Class&lt;*&gt;" style="text;strokeColor=none;fillColor=none;align=left;verticalAlign=top;spacingLeft=4;spacingRight=4;overflow=hidden;rotatable=0;points=[[0,0.5],[1,0.5]];portConstraint=eastwest;" parent="8rjHVLUGmRl6VgzejmVH-127" vertex="1">
          <mxGeometry y="40" width="160" height="40" as="geometry" />
        </mxCell>
        <mxCell id="8rjHVLUGmRl6VgzejmVH-129" value="" style="line;strokeWidth=1;fillColor=none;align=left;verticalAlign=middle;spacingTop=-1;spacingLeft=3;spacingRight=3;rotatable=0;labelPosition=right;points=[];portConstraint=eastwest;" parent="8rjHVLUGmRl6VgzejmVH-127" vertex="1">
          <mxGeometry y="80" width="160" height="8" as="geometry" />
        </mxCell>
        <mxCell id="8rjHVLUGmRl6VgzejmVH-131" value="&lt;&lt;interface&gt;&gt;&#xa;IEventProperties" style="swimlane;fontStyle=1;align=center;verticalAlign=top;childLayout=stackLayout;horizontal=1;startSize=40;horizontalStack=0;resizeParent=1;resizeParentMax=0;resizeLast=0;collapsible=1;marginBottom=0;" parent="WIyWlLk6GJQsqaUBKTNV-1" vertex="1">
          <mxGeometry x="1590" y="2080" width="160" height="88" as="geometry" />
        </mxCell>
        <mxCell id="8rjHVLUGmRl6VgzejmVH-132" value="+ keyName:String&#xa;+ valueType:Class&lt;*&gt;" style="text;strokeColor=none;fillColor=none;align=left;verticalAlign=top;spacingLeft=4;spacingRight=4;overflow=hidden;rotatable=0;points=[[0,0.5],[1,0.5]];portConstraint=eastwest;" parent="8rjHVLUGmRl6VgzejmVH-131" vertex="1">
          <mxGeometry y="40" width="160" height="40" as="geometry" />
        </mxCell>
        <mxCell id="8rjHVLUGmRl6VgzejmVH-133" value="" style="line;strokeWidth=1;fillColor=none;align=left;verticalAlign=middle;spacingTop=-1;spacingLeft=3;spacingRight=3;rotatable=0;labelPosition=right;points=[];portConstraint=eastwest;" parent="8rjHVLUGmRl6VgzejmVH-131" vertex="1">
          <mxGeometry y="80" width="160" height="8" as="geometry" />
        </mxCell>
        <mxCell id="8rjHVLUGmRl6VgzejmVH-135" value="&lt;&lt;interface&gt;&gt;&#xa;IEventSuperProperties" style="swimlane;fontStyle=1;align=center;verticalAlign=top;childLayout=stackLayout;horizontal=1;startSize=40;horizontalStack=0;resizeParent=1;resizeParentMax=0;resizeLast=0;collapsible=1;marginBottom=0;" parent="WIyWlLk6GJQsqaUBKTNV-1" vertex="1">
          <mxGeometry x="1590" y="2210" width="160" height="88" as="geometry" />
        </mxCell>
        <mxCell id="8rjHVLUGmRl6VgzejmVH-136" value="+ keyName:String&#xa;+ valueType:Class&lt;*&gt;" style="text;strokeColor=none;fillColor=none;align=left;verticalAlign=top;spacingLeft=4;spacingRight=4;overflow=hidden;rotatable=0;points=[[0,0.5],[1,0.5]];portConstraint=eastwest;" parent="8rjHVLUGmRl6VgzejmVH-135" vertex="1">
          <mxGeometry y="40" width="160" height="40" as="geometry" />
        </mxCell>
        <mxCell id="8rjHVLUGmRl6VgzejmVH-137" value="" style="line;strokeWidth=1;fillColor=none;align=left;verticalAlign=middle;spacingTop=-1;spacingLeft=3;spacingRight=3;rotatable=0;labelPosition=right;points=[];portConstraint=eastwest;" parent="8rjHVLUGmRl6VgzejmVH-135" vertex="1">
          <mxGeometry y="80" width="160" height="8" as="geometry" />
        </mxCell>
        <mxCell id="8rjHVLUGmRl6VgzejmVH-138" value="&lt;&lt;interface&gt;&gt;&#xa;IUserProperties" style="swimlane;fontStyle=1;align=center;verticalAlign=top;childLayout=stackLayout;horizontal=1;startSize=40;horizontalStack=0;resizeParent=1;resizeParentMax=0;resizeLast=0;collapsible=1;marginBottom=0;" parent="WIyWlLk6GJQsqaUBKTNV-1" vertex="1">
          <mxGeometry x="1590" y="2330" width="160" height="88" as="geometry" />
        </mxCell>
        <mxCell id="8rjHVLUGmRl6VgzejmVH-139" value="+ keyName:String&#xa;+ valueType:Class&lt;*&gt;" style="text;strokeColor=none;fillColor=none;align=left;verticalAlign=top;spacingLeft=4;spacingRight=4;overflow=hidden;rotatable=0;points=[[0,0.5],[1,0.5]];portConstraint=eastwest;" parent="8rjHVLUGmRl6VgzejmVH-138" vertex="1">
          <mxGeometry y="40" width="160" height="40" as="geometry" />
        </mxCell>
        <mxCell id="8rjHVLUGmRl6VgzejmVH-140" value="" style="line;strokeWidth=1;fillColor=none;align=left;verticalAlign=middle;spacingTop=-1;spacingLeft=3;spacingRight=3;rotatable=0;labelPosition=right;points=[];portConstraint=eastwest;" parent="8rjHVLUGmRl6VgzejmVH-138" vertex="1">
          <mxGeometry y="80" width="160" height="8" as="geometry" />
        </mxCell>
        <mxCell id="8rjHVLUGmRl6VgzejmVH-141" value="" style="endArrow=block;dashed=1;endFill=0;endSize=12;html=1;rounded=0;exitX=0;exitY=0.25;exitDx=0;exitDy=0;entryX=1;entryY=0.182;entryDx=0;entryDy=0;entryPerimeter=0;" parent="WIyWlLk6GJQsqaUBKTNV-1" source="8rjHVLUGmRl6VgzejmVH-131" target="8rjHVLUGmRl6VgzejmVH-127" edge="1">
          <mxGeometry width="160" relative="1" as="geometry">
            <mxPoint x="1240" y="2210" as="sourcePoint" />
            <mxPoint x="1400" y="2210" as="targetPoint" />
          </mxGeometry>
        </mxCell>
        <mxCell id="8rjHVLUGmRl6VgzejmVH-142" value="" style="endArrow=block;dashed=1;endFill=0;endSize=12;html=1;rounded=0;exitX=0;exitY=0.25;exitDx=0;exitDy=0;entryX=0.75;entryY=1;entryDx=0;entryDy=0;" parent="WIyWlLk6GJQsqaUBKTNV-1" source="8rjHVLUGmRl6VgzejmVH-135" target="8rjHVLUGmRl6VgzejmVH-127" edge="1">
          <mxGeometry width="160" relative="1" as="geometry">
            <mxPoint x="1560" y="2240" as="sourcePoint" />
            <mxPoint x="1490" y="2244.016" as="targetPoint" />
            <Array as="points">
              <mxPoint x="1480" y="2232" />
            </Array>
          </mxGeometry>
        </mxCell>
        <mxCell id="8rjHVLUGmRl6VgzejmVH-143" value="" style="endArrow=block;dashed=1;endFill=0;endSize=12;html=1;rounded=0;exitX=0;exitY=0.25;exitDx=0;exitDy=0;" parent="WIyWlLk6GJQsqaUBKTNV-1" source="8rjHVLUGmRl6VgzejmVH-138" edge="1">
          <mxGeometry width="160" relative="1" as="geometry">
            <mxPoint x="1540" y="2344" as="sourcePoint" />
            <mxPoint x="1430" y="2180" as="targetPoint" />
            <Array as="points">
              <mxPoint x="1430" y="2352" />
            </Array>
          </mxGeometry>
        </mxCell>
        <mxCell id="8rjHVLUGmRl6VgzejmVH-144" value="PropertyValue" style="swimlane;fontStyle=1;align=center;verticalAlign=top;childLayout=stackLayout;horizontal=1;startSize=26;horizontalStack=0;resizeParent=1;resizeParentMax=0;resizeLast=0;collapsible=1;marginBottom=0;" parent="WIyWlLk6GJQsqaUBKTNV-1" vertex="1">
          <mxGeometry x="1241" y="2560" width="210" height="230" as="geometry" />
        </mxCell>
        <mxCell id="8rjHVLUGmRl6VgzejmVH-145" value="- string:String&#xa;- number:Number&#xa;- boolean:Boolean&#xa;- date:Date&#xa;- stringList:List&lt;String&gt;" style="text;strokeColor=none;fillColor=none;align=left;verticalAlign=top;spacingLeft=4;spacingRight=4;overflow=hidden;rotatable=0;points=[[0,0.5],[1,0.5]];portConstraint=eastwest;" parent="8rjHVLUGmRl6VgzejmVH-144" vertex="1">
          <mxGeometry y="26" width="210" height="84" as="geometry" />
        </mxCell>
        <mxCell id="8rjHVLUGmRl6VgzejmVH-146" value="" style="line;strokeWidth=1;fillColor=none;align=left;verticalAlign=middle;spacingTop=-1;spacingLeft=3;spacingRight=3;rotatable=0;labelPosition=right;points=[];portConstraint=eastwest;" parent="8rjHVLUGmRl6VgzejmVH-144" vertex="1">
          <mxGeometry y="110" width="210" height="8" as="geometry" />
        </mxCell>
        <mxCell id="8rjHVLUGmRl6VgzejmVH-147" value="+ constructor(string:String)&#xa;+ constructor(number:Number)&#xa;+ constructor(boolean:Boolean)&#xa;+ constructor(date:Date)&#xa;+ constructor(stringList:List&lt;String&gt;)&#xa;&#xa;+ getValue:Any?" style="text;strokeColor=none;fillColor=none;align=left;verticalAlign=top;spacingLeft=4;spacingRight=4;overflow=hidden;rotatable=0;points=[[0,0.5],[1,0.5]];portConstraint=eastwest;" parent="8rjHVLUGmRl6VgzejmVH-144" vertex="1">
          <mxGeometry y="118" width="210" height="112" as="geometry" />
        </mxCell>
        <mxCell id="8rjHVLUGmRl6VgzejmVH-149" value="KKTracker Module" style="shape=module;align=left;spacingLeft=20;align=center;verticalAlign=top;" parent="WIyWlLk6GJQsqaUBKTNV-1" vertex="1">
          <mxGeometry x="1680" y="-180" width="190" height="52" as="geometry" />
        </mxCell>
        <mxCell id="8rjHVLUGmRl6VgzejmVH-153" value="Tracker" style="swimlane;fontStyle=1;align=center;verticalAlign=top;childLayout=stackLayout;horizontal=1;startSize=26;horizontalStack=0;resizeParent=1;resizeParentMax=0;resizeLast=0;collapsible=1;marginBottom=0;shadow=1;fillColor=none;" parent="WIyWlLk6GJQsqaUBKTNV-1" vertex="1">
          <mxGeometry x="2320" y="-90" width="480" height="340" as="geometry" />
        </mxCell>
        <mxCell id="8rjHVLUGmRl6VgzejmVH-154" value="- debugTool:DebugTool&#xa;- kkTracker:IKKTracker&#xa;- eventTracker:IEventTracker&#xa;- userTracker:IUserTracker" style="text;strokeColor=none;fillColor=none;align=left;verticalAlign=top;spacingLeft=4;spacingRight=4;overflow=hidden;rotatable=0;points=[[0,0.5],[1,0.5]];portConstraint=eastwest;shadow=1;" parent="8rjHVLUGmRl6VgzejmVH-153" vertex="1">
          <mxGeometry y="26" width="480" height="94" as="geometry" />
        </mxCell>
        <mxCell id="8rjHVLUGmRl6VgzejmVH-155" value="" style="line;strokeWidth=1;fillColor=none;align=left;verticalAlign=middle;spacingTop=-1;spacingLeft=3;spacingRight=3;rotatable=0;labelPosition=right;points=[];portConstraint=eastwest;shadow=1;" parent="8rjHVLUGmRl6VgzejmVH-153" vertex="1">
          <mxGeometry y="120" width="480" height="8" as="geometry" />
        </mxCell>
        <mxCell id="8rjHVLUGmRl6VgzejmVH-156" value="+ constructor(debugTool:DebugTool)&#xa;&#xa;+ isInitialize():Boolean&#xa;+ initialize(context:Context)&#xa;+ login(iserId)&#xa;+ logout()&#xa;+ getLoginId:String&#xa;&#xa;+ trackViewOrderPageBookingFormEvent(localData:Data)&#xa;+ trackViewProductPageCheckBtnEVent(localData:Data)&#xa;&#xa;+ setUserProfileProperties(loginChannel:String, currency:String, language:String&#xa;&#xa;" style="text;strokeColor=none;fillColor=none;align=left;verticalAlign=top;spacingLeft=4;spacingRight=4;overflow=hidden;rotatable=0;points=[[0,0.5],[1,0.5]];portConstraint=eastwest;shadow=1;" parent="8rjHVLUGmRl6VgzejmVH-153" vertex="1">
          <mxGeometry y="128" width="480" height="212" as="geometry" />
        </mxCell>
        <mxCell id="8rjHVLUGmRl6VgzejmVH-157" value="&lt;&lt;interace&gt;&gt;&#xa;IEventTracker" style="swimlane;fontStyle=1;align=center;verticalAlign=top;childLayout=stackLayout;horizontal=1;startSize=40;horizontalStack=0;resizeParent=1;resizeParentMax=0;resizeLast=0;collapsible=1;marginBottom=0;shadow=1;fillColor=none;" parent="WIyWlLk6GJQsqaUBKTNV-1" vertex="1">
          <mxGeometry x="3475" y="230" width="350" height="104" as="geometry" />
        </mxCell>
        <mxCell id="8rjHVLUGmRl6VgzejmVH-159" value="" style="line;strokeWidth=1;fillColor=none;align=left;verticalAlign=middle;spacingTop=-1;spacingLeft=3;spacingRight=3;rotatable=0;labelPosition=right;points=[];portConstraint=eastwest;shadow=1;" parent="8rjHVLUGmRl6VgzejmVH-157" vertex="1">
          <mxGeometry y="40" width="350" height="8" as="geometry" />
        </mxCell>
        <mxCell id="8rjHVLUGmRl6VgzejmVH-160" value="+ trackViewOrderPageBookingFormEvent(localData:Data)&#xa;+ trackViewProductPageCheckBtnEVent(localData:Data)" style="text;strokeColor=none;fillColor=none;align=left;verticalAlign=top;spacingLeft=4;spacingRight=4;overflow=hidden;rotatable=0;points=[[0,0.5],[1,0.5]];portConstraint=eastwest;shadow=1;" parent="8rjHVLUGmRl6VgzejmVH-157" vertex="1">
          <mxGeometry y="48" width="350" height="56" as="geometry" />
        </mxCell>
        <mxCell id="8rjHVLUGmRl6VgzejmVH-161" value="&lt;&lt;interace&gt;&gt;&#xa;IOrderTracker" style="swimlane;fontStyle=1;align=center;verticalAlign=top;childLayout=stackLayout;horizontal=1;startSize=40;horizontalStack=0;resizeParent=1;resizeParentMax=0;resizeLast=0;collapsible=1;marginBottom=0;shadow=1;fillColor=none;" parent="WIyWlLk6GJQsqaUBKTNV-1" vertex="1">
          <mxGeometry x="3710" y="490" width="350" height="74" as="geometry" />
        </mxCell>
        <mxCell id="8rjHVLUGmRl6VgzejmVH-163" value="" style="line;strokeWidth=1;fillColor=none;align=left;verticalAlign=middle;spacingTop=-1;spacingLeft=3;spacingRight=3;rotatable=0;labelPosition=right;points=[];portConstraint=eastwest;shadow=1;" parent="8rjHVLUGmRl6VgzejmVH-161" vertex="1">
          <mxGeometry y="40" width="350" height="8" as="geometry" />
        </mxCell>
        <mxCell id="8rjHVLUGmRl6VgzejmVH-164" value="+ trackViewOrderPageBookingFormEvent(localData:Data)" style="text;strokeColor=none;fillColor=none;align=left;verticalAlign=top;spacingLeft=4;spacingRight=4;overflow=hidden;rotatable=0;points=[[0,0.5],[1,0.5]];portConstraint=eastwest;shadow=1;" parent="8rjHVLUGmRl6VgzejmVH-161" vertex="1">
          <mxGeometry y="48" width="350" height="26" as="geometry" />
        </mxCell>
        <mxCell id="8rjHVLUGmRl6VgzejmVH-172" value="OrderTracker" style="swimlane;fontStyle=1;align=center;verticalAlign=top;childLayout=stackLayout;horizontal=1;startSize=26;horizontalStack=0;resizeParent=1;resizeParentMax=0;resizeLast=0;collapsible=1;marginBottom=0;shadow=1;fillColor=none;" parent="WIyWlLk6GJQsqaUBKTNV-1" vertex="1">
          <mxGeometry x="3320" y="490" width="330" height="110" as="geometry" />
        </mxCell>
        <mxCell id="8rjHVLUGmRl6VgzejmVH-173" value="- kkEventTracker:IKKEventTracker" style="text;strokeColor=none;fillColor=none;align=left;verticalAlign=top;spacingLeft=4;spacingRight=4;overflow=hidden;rotatable=0;points=[[0,0.5],[1,0.5]];portConstraint=eastwest;shadow=1;" parent="8rjHVLUGmRl6VgzejmVH-172" vertex="1">
          <mxGeometry y="26" width="330" height="26" as="geometry" />
        </mxCell>
        <mxCell id="8rjHVLUGmRl6VgzejmVH-174" value="" style="line;strokeWidth=1;fillColor=none;align=left;verticalAlign=middle;spacingTop=-1;spacingLeft=3;spacingRight=3;rotatable=0;labelPosition=right;points=[];portConstraint=eastwest;shadow=1;" parent="8rjHVLUGmRl6VgzejmVH-172" vertex="1">
          <mxGeometry y="52" width="330" height="8" as="geometry" />
        </mxCell>
        <mxCell id="8rjHVLUGmRl6VgzejmVH-175" value="+ constructor(kkEventTracker:IKKEventTracker)&#xa;+ trackViewOrderPageBookingFormEvent(localData:Data)" style="text;strokeColor=none;fillColor=none;align=left;verticalAlign=top;spacingLeft=4;spacingRight=4;overflow=hidden;rotatable=0;points=[[0,0.5],[1,0.5]];portConstraint=eastwest;shadow=1;" parent="8rjHVLUGmRl6VgzejmVH-172" vertex="1">
          <mxGeometry y="60" width="330" height="50" as="geometry" />
        </mxCell>
        <mxCell id="8rjHVLUGmRl6VgzejmVH-176" value="" style="endArrow=block;dashed=1;endFill=0;endSize=12;html=1;rounded=0;exitX=1.006;exitY=0.182;exitDx=0;exitDy=0;exitPerimeter=0;entryX=0;entryY=0.25;entryDx=0;entryDy=0;" parent="WIyWlLk6GJQsqaUBKTNV-1" source="8rjHVLUGmRl6VgzejmVH-172" target="8rjHVLUGmRl6VgzejmVH-161" edge="1">
          <mxGeometry width="160" relative="1" as="geometry">
            <mxPoint x="3655" y="490" as="sourcePoint" />
            <mxPoint x="3815" y="490" as="targetPoint" />
          </mxGeometry>
        </mxCell>
        <mxCell id="8rjHVLUGmRl6VgzejmVH-178" value="DebugTool Module" style="shape=module;align=left;spacingLeft=20;align=center;verticalAlign=top;" parent="WIyWlLk6GJQsqaUBKTNV-1" vertex="1">
          <mxGeometry x="2810" y="-560" width="190" height="52" as="geometry" />
        </mxCell>
        <mxCell id="8rjHVLUGmRl6VgzejmVH-179" value="" style="rounded=0;whiteSpace=wrap;html=1;shadow=1;fillColor=none;" parent="WIyWlLk6GJQsqaUBKTNV-1" vertex="1">
          <mxGeometry x="2640" y="-560" width="360" height="170" as="geometry" />
        </mxCell>
        <mxCell id="8rjHVLUGmRl6VgzejmVH-181" value="EventTracker" style="swimlane;fontStyle=1;align=center;verticalAlign=top;childLayout=stackLayout;horizontal=1;startSize=26;horizontalStack=0;resizeParent=1;resizeParentMax=0;resizeLast=0;collapsible=1;marginBottom=0;shadow=1;fillColor=none;" parent="WIyWlLk6GJQsqaUBKTNV-1" vertex="1">
          <mxGeometry x="2880" y="220" width="330" height="180" as="geometry" />
        </mxCell>
        <mxCell id="8rjHVLUGmRl6VgzejmVH-182" value="&#xa;- kkEventTracker:IKKEventTracker,&#xa;- orderTracker:IOrderTracker&#xa;- productTracker:IProductTracker&#xa;" style="text;strokeColor=none;fillColor=none;align=left;verticalAlign=top;spacingLeft=4;spacingRight=4;overflow=hidden;rotatable=0;points=[[0,0.5],[1,0.5]];portConstraint=eastwest;shadow=1;" parent="8rjHVLUGmRl6VgzejmVH-181" vertex="1">
          <mxGeometry y="26" width="330" height="74" as="geometry" />
        </mxCell>
        <mxCell id="8rjHVLUGmRl6VgzejmVH-183" value="" style="line;strokeWidth=1;fillColor=none;align=left;verticalAlign=middle;spacingTop=-1;spacingLeft=3;spacingRight=3;rotatable=0;labelPosition=right;points=[];portConstraint=eastwest;shadow=1;" parent="8rjHVLUGmRl6VgzejmVH-181" vertex="1">
          <mxGeometry y="100" width="330" height="8" as="geometry" />
        </mxCell>
        <mxCell id="8rjHVLUGmRl6VgzejmVH-184" value="- constructor(kkEventTracker:IKKEventTracker)&#xa;&#xa;+ trackViewOrderPageBookingFormEvent(localData:Data)&#xa;+ trackViewProductPageCheckBtnEVent(localData:Data)" style="text;strokeColor=none;fillColor=none;align=left;verticalAlign=top;spacingLeft=4;spacingRight=4;overflow=hidden;rotatable=0;points=[[0,0.5],[1,0.5]];portConstraint=eastwest;shadow=1;" parent="8rjHVLUGmRl6VgzejmVH-181" vertex="1">
          <mxGeometry y="108" width="330" height="72" as="geometry" />
        </mxCell>
        <mxCell id="8rjHVLUGmRl6VgzejmVH-185" value="" style="endArrow=block;dashed=1;endFill=0;endSize=12;html=1;rounded=0;exitX=1.003;exitY=0.231;exitDx=0;exitDy=0;exitPerimeter=0;entryX=0.54;entryY=-0.014;entryDx=0;entryDy=0;entryPerimeter=0;" parent="WIyWlLk6GJQsqaUBKTNV-1" source="8rjHVLUGmRl6VgzejmVH-160" target="8rjHVLUGmRl6VgzejmVH-161" edge="1">
          <mxGeometry width="160" relative="1" as="geometry">
            <mxPoint x="3824.9999999999995" y="261.52" as="sourcePoint" />
            <mxPoint x="4013.02" y="260" as="targetPoint" />
            <Array as="points">
              <mxPoint x="3894" y="320" />
            </Array>
          </mxGeometry>
        </mxCell>
        <mxCell id="8rjHVLUGmRl6VgzejmVH-186" value="" style="endArrow=block;dashed=1;endFill=0;endSize=12;html=1;rounded=0;entryX=0;entryY=0.5;entryDx=0;entryDy=0;exitX=1;exitY=0.5;exitDx=0;exitDy=0;" parent="WIyWlLk6GJQsqaUBKTNV-1" source="8rjHVLUGmRl6VgzejmVH-182" edge="1">
          <mxGeometry width="160" relative="1" as="geometry">
            <mxPoint x="3285" y="310" as="sourcePoint" />
            <mxPoint x="3475" y="283" as="targetPoint" />
          </mxGeometry>
        </mxCell>
        <mxCell id="8rjHVLUGmRl6VgzejmVH-188" value="ProductTracker" style="swimlane;fontStyle=1;align=center;verticalAlign=top;childLayout=stackLayout;horizontal=1;startSize=26;horizontalStack=0;resizeParent=1;resizeParentMax=0;resizeLast=0;collapsible=1;marginBottom=0;shadow=1;fillColor=none;" parent="WIyWlLk6GJQsqaUBKTNV-1" vertex="1">
          <mxGeometry x="3325" y="740" width="330" height="110" as="geometry" />
        </mxCell>
        <mxCell id="8rjHVLUGmRl6VgzejmVH-189" value="- kkEventTracker:IKKEventTracker" style="text;strokeColor=none;fillColor=none;align=left;verticalAlign=top;spacingLeft=4;spacingRight=4;overflow=hidden;rotatable=0;points=[[0,0.5],[1,0.5]];portConstraint=eastwest;shadow=1;" parent="8rjHVLUGmRl6VgzejmVH-188" vertex="1">
          <mxGeometry y="26" width="330" height="26" as="geometry" />
        </mxCell>
        <mxCell id="8rjHVLUGmRl6VgzejmVH-190" value="" style="line;strokeWidth=1;fillColor=none;align=left;verticalAlign=middle;spacingTop=-1;spacingLeft=3;spacingRight=3;rotatable=0;labelPosition=right;points=[];portConstraint=eastwest;shadow=1;" parent="8rjHVLUGmRl6VgzejmVH-188" vertex="1">
          <mxGeometry y="52" width="330" height="8" as="geometry" />
        </mxCell>
        <mxCell id="8rjHVLUGmRl6VgzejmVH-191" value="+ constructor(kkEventTracker:IKKEventTracker)&#xa;+ trackViewProductPageCheckBtnEVent(localData:Data)" style="text;strokeColor=none;fillColor=none;align=left;verticalAlign=top;spacingLeft=4;spacingRight=4;overflow=hidden;rotatable=0;points=[[0,0.5],[1,0.5]];portConstraint=eastwest;shadow=1;" parent="8rjHVLUGmRl6VgzejmVH-188" vertex="1">
          <mxGeometry y="60" width="330" height="50" as="geometry" />
        </mxCell>
        <mxCell id="8rjHVLUGmRl6VgzejmVH-192" value="&lt;&lt;interace&gt;&gt;&#xa;IOrderTracker" style="swimlane;fontStyle=1;align=center;verticalAlign=top;childLayout=stackLayout;horizontal=1;startSize=40;horizontalStack=0;resizeParent=1;resizeParentMax=0;resizeLast=0;collapsible=1;marginBottom=0;shadow=1;fillColor=none;" parent="WIyWlLk6GJQsqaUBKTNV-1" vertex="1">
          <mxGeometry x="3772" y="740" width="350" height="74" as="geometry" />
        </mxCell>
        <mxCell id="8rjHVLUGmRl6VgzejmVH-193" value="" style="line;strokeWidth=1;fillColor=none;align=left;verticalAlign=middle;spacingTop=-1;spacingLeft=3;spacingRight=3;rotatable=0;labelPosition=right;points=[];portConstraint=eastwest;shadow=1;" parent="8rjHVLUGmRl6VgzejmVH-192" vertex="1">
          <mxGeometry y="40" width="350" height="8" as="geometry" />
        </mxCell>
        <mxCell id="8rjHVLUGmRl6VgzejmVH-194" value="+ trackViewProductPageCheckBtnEVent(localData:Data)" style="text;strokeColor=none;fillColor=none;align=left;verticalAlign=top;spacingLeft=4;spacingRight=4;overflow=hidden;rotatable=0;points=[[0,0.5],[1,0.5]];portConstraint=eastwest;shadow=1;" parent="8rjHVLUGmRl6VgzejmVH-192" vertex="1">
          <mxGeometry y="48" width="350" height="26" as="geometry" />
        </mxCell>
        <mxCell id="8rjHVLUGmRl6VgzejmVH-195" value="" style="endArrow=block;dashed=1;endFill=0;endSize=12;html=1;rounded=0;exitX=1.003;exitY=0.231;exitDx=0;exitDy=0;exitPerimeter=0;entryX=0.897;entryY=-0.068;entryDx=0;entryDy=0;entryPerimeter=0;" parent="WIyWlLk6GJQsqaUBKTNV-1" target="8rjHVLUGmRl6VgzejmVH-192" edge="1">
          <mxGeometry width="160" relative="1" as="geometry">
            <mxPoint x="3825" y="245.0460000000001" as="sourcePoint" />
            <mxPoint x="3892.95" y="380.00399999999996" as="targetPoint" />
            <Array as="points">
              <mxPoint x="4086" y="245" />
            </Array>
          </mxGeometry>
        </mxCell>
        <mxCell id="8rjHVLUGmRl6VgzejmVH-197" value="&lt;&lt;interace&gt;&gt;&#xa;IUserTracker" style="swimlane;fontStyle=1;align=center;verticalAlign=top;childLayout=stackLayout;horizontal=1;startSize=40;horizontalStack=0;resizeParent=1;resizeParentMax=0;resizeLast=0;collapsible=1;marginBottom=0;shadow=1;fillColor=none;" parent="WIyWlLk6GJQsqaUBKTNV-1" vertex="1">
          <mxGeometry x="3875" y="1095" width="480" height="74" as="geometry" />
        </mxCell>
        <mxCell id="8rjHVLUGmRl6VgzejmVH-198" value="" style="line;strokeWidth=1;fillColor=none;align=left;verticalAlign=middle;spacingTop=-1;spacingLeft=3;spacingRight=3;rotatable=0;labelPosition=right;points=[];portConstraint=eastwest;shadow=1;" parent="8rjHVLUGmRl6VgzejmVH-197" vertex="1">
          <mxGeometry y="40" width="480" height="8" as="geometry" />
        </mxCell>
        <mxCell id="8rjHVLUGmRl6VgzejmVH-199" value="+ setUserProfileProperties(loginChannel:String, currency:String, language:String" style="text;strokeColor=none;fillColor=none;align=left;verticalAlign=top;spacingLeft=4;spacingRight=4;overflow=hidden;rotatable=0;points=[[0,0.5],[1,0.5]];portConstraint=eastwest;shadow=1;" parent="8rjHVLUGmRl6VgzejmVH-197" vertex="1">
          <mxGeometry y="48" width="480" height="26" as="geometry" />
        </mxCell>
        <mxCell id="8rjHVLUGmRl6VgzejmVH-203" value="UserTracker" style="swimlane;fontStyle=1;align=center;verticalAlign=top;childLayout=stackLayout;horizontal=1;startSize=26;horizontalStack=0;resizeParent=1;resizeParentMax=0;resizeLast=0;collapsible=1;marginBottom=0;shadow=1;fillColor=none;" parent="WIyWlLk6GJQsqaUBKTNV-1" vertex="1">
          <mxGeometry x="2895" y="1093" width="520" height="120" as="geometry" />
        </mxCell>
        <mxCell id="8rjHVLUGmRl6VgzejmVH-204" value="- kkUserTracker:IKKUserTracker" style="text;strokeColor=none;fillColor=none;align=left;verticalAlign=top;spacingLeft=4;spacingRight=4;overflow=hidden;rotatable=0;points=[[0,0.5],[1,0.5]];portConstraint=eastwest;shadow=1;" parent="8rjHVLUGmRl6VgzejmVH-203" vertex="1">
          <mxGeometry y="26" width="520" height="26" as="geometry" />
        </mxCell>
        <mxCell id="8rjHVLUGmRl6VgzejmVH-205" value="" style="line;strokeWidth=1;fillColor=none;align=left;verticalAlign=middle;spacingTop=-1;spacingLeft=3;spacingRight=3;rotatable=0;labelPosition=right;points=[];portConstraint=eastwest;shadow=1;" parent="8rjHVLUGmRl6VgzejmVH-203" vertex="1">
          <mxGeometry y="52" width="520" height="8" as="geometry" />
        </mxCell>
        <mxCell id="8rjHVLUGmRl6VgzejmVH-206" value="+ constructor(kkuserTracker:IKKUserTacker)&#xa;&#xa;+ setUserProfileProperties(loginChannel:String, currency:String, language:String" style="text;strokeColor=none;fillColor=none;align=left;verticalAlign=top;spacingLeft=4;spacingRight=4;overflow=hidden;rotatable=0;points=[[0,0.5],[1,0.5]];portConstraint=eastwest;shadow=1;" parent="8rjHVLUGmRl6VgzejmVH-203" vertex="1">
          <mxGeometry y="60" width="520" height="60" as="geometry" />
        </mxCell>
        <mxCell id="8rjHVLUGmRl6VgzejmVH-207" value="" style="endArrow=block;dashed=1;endFill=0;endSize=12;html=1;rounded=0;entryX=-0.004;entryY=0.351;entryDx=0;entryDy=0;entryPerimeter=0;exitX=1;exitY=0.2;exitDx=0;exitDy=0;exitPerimeter=0;" parent="WIyWlLk6GJQsqaUBKTNV-1" source="8rjHVLUGmRl6VgzejmVH-203" target="8rjHVLUGmRl6VgzejmVH-197" edge="1">
          <mxGeometry width="160" relative="1" as="geometry">
            <mxPoint x="3145" y="1164" as="sourcePoint" />
            <mxPoint x="3305" y="1164" as="targetPoint" />
          </mxGeometry>
        </mxCell>
        <mxCell id="8rjHVLUGmRl6VgzejmVH-208" value="" style="endArrow=block;dashed=1;endFill=0;endSize=12;html=1;rounded=0;entryX=1;entryY=0.5;entryDx=0;entryDy=0;exitX=0;exitY=1;exitDx=0;exitDy=0;exitPerimeter=0;" parent="WIyWlLk6GJQsqaUBKTNV-1" source="8rjHVLUGmRl6VgzejmVH-154" target="8rjHVLUGmRl6VgzejmVH-42" edge="1">
          <mxGeometry width="160" relative="1" as="geometry">
            <mxPoint x="2170" y="40" as="sourcePoint" />
            <mxPoint x="1990" y="580" as="targetPoint" />
            <Array as="points">
              <mxPoint x="2040" y="30" />
              <mxPoint x="2040" y="749" />
            </Array>
          </mxGeometry>
        </mxCell>
        <mxCell id="8rjHVLUGmRl6VgzejmVH-209" value="" style="endArrow=block;dashed=1;endFill=0;endSize=12;html=1;rounded=0;entryX=0.5;entryY=0;entryDx=0;entryDy=0;exitX=1.007;exitY=0.047;exitDx=0;exitDy=0;exitPerimeter=0;" parent="WIyWlLk6GJQsqaUBKTNV-1" source="8rjHVLUGmRl6VgzejmVH-156" target="8rjHVLUGmRl6VgzejmVH-157" edge="1">
          <mxGeometry width="160" relative="1" as="geometry">
            <mxPoint x="2840" y="-30" as="sourcePoint" />
            <mxPoint x="3000" y="-30" as="targetPoint" />
            <Array as="points">
              <mxPoint x="3650" y="50" />
            </Array>
          </mxGeometry>
        </mxCell>
        <mxCell id="8rjHVLUGmRl6VgzejmVH-210" value="" style="endArrow=block;dashed=1;endFill=0;endSize=12;html=1;rounded=0;exitX=1.007;exitY=0.33;exitDx=0;exitDy=0;exitPerimeter=0;entryX=0.633;entryY=-0.027;entryDx=0;entryDy=0;entryPerimeter=0;" parent="WIyWlLk6GJQsqaUBKTNV-1" source="8rjHVLUGmRl6VgzejmVH-154" target="8rjHVLUGmRl6VgzejmVH-197" edge="1">
          <mxGeometry width="160" relative="1" as="geometry">
            <mxPoint x="2930" y="-30" as="sourcePoint" />
            <mxPoint x="4310" y="520" as="targetPoint" />
            <Array as="points">
              <mxPoint x="4170" y="-40" />
            </Array>
          </mxGeometry>
        </mxCell>
        <mxCell id="8rjHVLUGmRl6VgzejmVH-211" value="App Module" style="shape=module;align=left;spacingLeft=20;align=center;verticalAlign=top;shadow=1;fillColor=none;" parent="WIyWlLk6GJQsqaUBKTNV-1" vertex="1">
          <mxGeometry x="4300" y="-260" width="100" height="50" as="geometry" />
        </mxCell>
        <mxCell id="8rjHVLUGmRl6VgzejmVH-216" value="" style="endArrow=diamondThin;endFill=1;endSize=24;html=1;rounded=0;entryX=0.91;entryY=1.013;entryDx=0;entryDy=0;entryPerimeter=0;exitX=-0.006;exitY=0.233;exitDx=0;exitDy=0;exitPerimeter=0;" parent="WIyWlLk6GJQsqaUBKTNV-1" source="8rjHVLUGmRl6VgzejmVH-173" target="8rjHVLUGmRl6VgzejmVH-184" edge="1">
          <mxGeometry width="160" relative="1" as="geometry">
            <mxPoint x="3100" y="530" as="sourcePoint" />
            <mxPoint x="3260" y="530" as="targetPoint" />
            <Array as="points">
              <mxPoint x="3180" y="520" />
            </Array>
          </mxGeometry>
        </mxCell>
        <mxCell id="8rjHVLUGmRl6VgzejmVH-217" value="" style="endArrow=diamondThin;endFill=1;endSize=24;html=1;rounded=0;entryX=0.618;entryY=1.039;entryDx=0;entryDy=0;entryPerimeter=0;exitX=-0.006;exitY=0.135;exitDx=0;exitDy=0;exitPerimeter=0;" parent="WIyWlLk6GJQsqaUBKTNV-1" source="8rjHVLUGmRl6VgzejmVH-188" target="8rjHVLUGmRl6VgzejmVH-184" edge="1">
          <mxGeometry width="160" relative="1" as="geometry">
            <mxPoint x="3020" y="620" as="sourcePoint" />
            <mxPoint x="3180" y="620" as="targetPoint" />
            <Array as="points">
              <mxPoint x="3090" y="755" />
            </Array>
          </mxGeometry>
        </mxCell>
        <mxCell id="8rjHVLUGmRl6VgzejmVH-218" value="" style="endArrow=diamondThin;endFill=1;endSize=24;html=1;rounded=0;entryX=0.915;entryY=1.011;entryDx=0;entryDy=0;entryPerimeter=0;exitX=0.001;exitY=0.613;exitDx=0;exitDy=0;exitPerimeter=0;" parent="WIyWlLk6GJQsqaUBKTNV-1" source="8rjHVLUGmRl6VgzejmVH-182" target="8rjHVLUGmRl6VgzejmVH-156" edge="1">
          <mxGeometry width="160" relative="1" as="geometry">
            <mxPoint x="2690" y="380" as="sourcePoint" />
            <mxPoint x="2850" y="380" as="targetPoint" />
            <Array as="points">
              <mxPoint x="2760" y="290" />
            </Array>
          </mxGeometry>
        </mxCell>
        <mxCell id="8rjHVLUGmRl6VgzejmVH-219" value="" style="endArrow=diamondThin;endFill=1;endSize=24;html=1;rounded=0;exitX=0;exitY=0.5;exitDx=0;exitDy=0;" parent="WIyWlLk6GJQsqaUBKTNV-1" source="8rjHVLUGmRl6VgzejmVH-204" edge="1">
          <mxGeometry width="160" relative="1" as="geometry">
            <mxPoint x="2500" y="990" as="sourcePoint" />
            <mxPoint x="2677" y="250" as="targetPoint" />
            <Array as="points">
              <mxPoint x="2677" y="1132" />
            </Array>
          </mxGeometry>
        </mxCell>
        <mxCell id="8rjHVLUGmRl6VgzejmVH-220" value="" style="endArrow=diamondThin;endFill=1;endSize=24;html=1;rounded=0;entryX=0.696;entryY=1.011;entryDx=0;entryDy=0;entryPerimeter=0;exitX=0.281;exitY=-0.004;exitDx=0;exitDy=0;exitPerimeter=0;" parent="WIyWlLk6GJQsqaUBKTNV-1" source="8rjHVLUGmRl6VgzejmVH-45" target="8rjHVLUGmRl6VgzejmVH-96" edge="1">
          <mxGeometry width="160" relative="1" as="geometry">
            <mxPoint x="110" y="460" as="sourcePoint" />
            <mxPoint x="270" y="460" as="targetPoint" />
          </mxGeometry>
        </mxCell>
        <mxCell id="8rjHVLUGmRl6VgzejmVH-221" value="" style="endArrow=diamondThin;endFill=1;endSize=24;html=1;rounded=0;entryX=0.447;entryY=1.015;entryDx=0;entryDy=0;entryPerimeter=0;exitX=0.066;exitY=-0.03;exitDx=0;exitDy=0;exitPerimeter=0;" parent="WIyWlLk6GJQsqaUBKTNV-1" source="8rjHVLUGmRl6VgzejmVH-69" target="8rjHVLUGmRl6VgzejmVH-96" edge="1">
          <mxGeometry width="160" relative="1" as="geometry">
            <mxPoint x="-90" y="570" as="sourcePoint" />
            <mxPoint x="70" y="570" as="targetPoint" />
          </mxGeometry>
        </mxCell>
        <mxCell id="8rjHVLUGmRl6VgzejmVH-222" value="" style="endArrow=diamondThin;endFill=1;endSize=24;html=1;rounded=0;entryX=0.217;entryY=1.002;entryDx=0;entryDy=0;entryPerimeter=0;exitX=0.125;exitY=0.015;exitDx=0;exitDy=0;exitPerimeter=0;" parent="WIyWlLk6GJQsqaUBKTNV-1" source="8rjHVLUGmRl6VgzejmVH-78" target="8rjHVLUGmRl6VgzejmVH-96" edge="1">
          <mxGeometry width="160" relative="1" as="geometry">
            <mxPoint x="-220" y="760" as="sourcePoint" />
            <mxPoint x="-60" y="760" as="targetPoint" />
          </mxGeometry>
        </mxCell>
        <mxCell id="8rjHVLUGmRl6VgzejmVH-223" value="" style="endArrow=diamondThin;endFill=0;endSize=24;html=1;rounded=0;entryX=0.25;entryY=0;entryDx=0;entryDy=0;exitX=0;exitY=0.25;exitDx=0;exitDy=0;" parent="WIyWlLk6GJQsqaUBKTNV-1" source="8rjHVLUGmRl6VgzejmVH-179" target="8rjHVLUGmRl6VgzejmVH-153" edge="1">
          <mxGeometry width="160" relative="1" as="geometry">
            <mxPoint x="2370" y="-290" as="sourcePoint" />
            <mxPoint x="2530" y="-290" as="targetPoint" />
            <Array as="points">
              <mxPoint x="2440" y="-517" />
            </Array>
          </mxGeometry>
        </mxCell>
        <mxCell id="8rjHVLUGmRl6VgzejmVH-228" value="此Module唯一會存取給外部的做使用的class.&lt;br&gt;在constructor中會初始化用到的sdk, kkEventTracker and kkUserTracker" style="shape=callout;whiteSpace=wrap;html=1;perimeter=calloutPerimeter;shadow=1;fillColor=none;size=40;position=0.09;position2=0;align=left;" parent="WIyWlLk6GJQsqaUBKTNV-1" vertex="1">
          <mxGeometry x="-120" y="-130" width="280" height="140" as="geometry" />
        </mxCell>
        <mxCell id="8rjHVLUGmRl6VgzejmVH-230" value="" style="endArrow=diamondThin;endFill=1;endSize=24;html=1;rounded=0;entryX=0.098;entryY=-0.002;entryDx=0;entryDy=0;entryPerimeter=0;exitX=0.75;exitY=0;exitDx=0;exitDy=0;" parent="WIyWlLk6GJQsqaUBKTNV-1" source="8rjHVLUGmRl6VgzejmVH-93" target="8rjHVLUGmRl6VgzejmVH-153" edge="1">
          <mxGeometry width="160" relative="1" as="geometry">
            <mxPoint x="1730" y="-250" as="sourcePoint" />
            <mxPoint x="2300" y="-220" as="targetPoint" />
            <Array as="points">
              <mxPoint x="268" y="-390" />
              <mxPoint x="2367" y="-390" />
            </Array>
          </mxGeometry>
        </mxCell>
        <mxCell id="8rjHVLUGmRl6VgzejmVH-233" value="供外部module去存取的interface" style="shape=callout;whiteSpace=wrap;html=1;perimeter=calloutPerimeter;shadow=1;fillColor=none;size=40;position=0.09;position2=0;align=left;" parent="WIyWlLk6GJQsqaUBKTNV-1" vertex="1">
          <mxGeometry x="900" y="-80" width="160" height="90" as="geometry" />
        </mxCell>
        <mxCell id="8rjHVLUGmRl6VgzejmVH-234" value="在此會實現Mixpanel library串接地方，假設有一天Mixpanel不支援之後，我們可以創建一個新的XXXSDK繼承ISDK，替換掉MixpanelSDK&amp;nbsp;" style="shape=callout;whiteSpace=wrap;html=1;perimeter=calloutPerimeter;shadow=1;fillColor=none;size=40;position=0.09;position2=0;align=left;" parent="WIyWlLk6GJQsqaUBKTNV-1" vertex="1">
          <mxGeometry x="350" y="410" width="280" height="110" as="geometry" />
        </mxCell>
        <mxCell id="8rjHVLUGmRl6VgzejmVH-235" value="用到此interface的物件，僅供紀錄Event以及properties" style="shape=callout;whiteSpace=wrap;html=1;perimeter=calloutPerimeter;shadow=1;fillColor=none;size=40;position=0.09;position2=0.04;align=left;base=25;" parent="WIyWlLk6GJQsqaUBKTNV-1" vertex="1">
          <mxGeometry x="1230" y="430" width="280" height="80" as="geometry" />
        </mxCell>
        <mxCell id="8rjHVLUGmRl6VgzejmVH-238" value="用到此interface的物件，僅供設置部分" style="shape=callout;whiteSpace=wrap;html=1;perimeter=calloutPerimeter;shadow=1;fillColor=none;size=40;position=0.09;position2=0.04;align=left;base=25;" parent="WIyWlLk6GJQsqaUBKTNV-1" vertex="1">
          <mxGeometry x="1340" y="648" width="280" height="80" as="geometry" />
        </mxCell>
        <mxCell id="8rjHVLUGmRl6VgzejmVH-239" value="專門處理Event的地方，這裡會幫忙做幾件事情&lt;br&gt;1. 會預先把傳遞過來的Properties做type的確認&lt;br&gt;2. 把每一次的事件，傳遞給debugTool做紀錄&lt;br&gt;3. 把空的Properties給移掉" style="shape=callout;whiteSpace=wrap;html=1;perimeter=calloutPerimeter;shadow=1;fillColor=none;size=40;position=0.09;position2=0;align=left;" parent="WIyWlLk6GJQsqaUBKTNV-1" vertex="1">
          <mxGeometry x="150" y="790" width="280" height="110" as="geometry" />
        </mxCell>
        <mxCell id="8rjHVLUGmRl6VgzejmVH-240" value="專門處理User profile properties的地方，這裡會幫忙做幾件事情&lt;br&gt;1. 會預先把傳遞過來的Properties做type的確認&lt;br&gt;2. 把每一次的更新user profile，傳遞給debugTool做紀錄&lt;br&gt;3. 把空的Properties給移掉" style="shape=callout;whiteSpace=wrap;html=1;perimeter=calloutPerimeter;shadow=1;fillColor=none;size=40;position=0.09;position2=0;align=left;" parent="WIyWlLk6GJQsqaUBKTNV-1" vertex="1">
          <mxGeometry x="-55" y="1100" width="280" height="130" as="geometry" />
        </mxCell>
        <mxCell id="8rjHVLUGmRl6VgzejmVH-241" value="這裡會實現，如何確認每個屬性的數值是不是正確的，例如ChannelName我們要設定一定是String，則會在這在次做確認，避免其他的開發者把ChannelName設定成int or bool" style="shape=callout;whiteSpace=wrap;html=1;perimeter=calloutPerimeter;shadow=1;fillColor=none;size=40;position=0.09;position2=0;align=left;" parent="WIyWlLk6GJQsqaUBKTNV-1" vertex="1">
          <mxGeometry x="1134.5" y="1088" width="309" height="130" as="geometry" />
        </mxCell>
        <mxCell id="8rjHVLUGmRl6VgzejmVH-242" value="&lt;&lt;enum class&gt;&gt;&#xa;EventPage" style="swimlane;fontStyle=1;align=center;verticalAlign=top;childLayout=stackLayout;horizontal=1;startSize=40;horizontalStack=0;resizeParent=1;resizeParentMax=0;resizeLast=0;collapsible=1;marginBottom=0;" parent="WIyWlLk6GJQsqaUBKTNV-1" vertex="1">
          <mxGeometry x="2270" y="1142" width="160" height="118" as="geometry" />
        </mxCell>
        <mxCell id="8rjHVLUGmRl6VgzejmVH-243" value="+ ORDER&#xa;+ PRODUCT" style="text;strokeColor=none;fillColor=none;align=left;verticalAlign=top;spacingLeft=4;spacingRight=4;overflow=hidden;rotatable=0;points=[[0,0.5],[1,0.5]];portConstraint=eastwest;" parent="8rjHVLUGmRl6VgzejmVH-242" vertex="1">
          <mxGeometry y="40" width="160" height="70" as="geometry" />
        </mxCell>
        <mxCell id="8rjHVLUGmRl6VgzejmVH-244" value="" style="line;strokeWidth=1;fillColor=none;align=left;verticalAlign=middle;spacingTop=-1;spacingLeft=3;spacingRight=3;rotatable=0;labelPosition=right;points=[];portConstraint=eastwest;" parent="8rjHVLUGmRl6VgzejmVH-242" vertex="1">
          <mxGeometry y="110" width="160" height="8" as="geometry" />
        </mxCell>
        <mxCell id="8rjHVLUGmRl6VgzejmVH-245" value="&lt;&lt;enum class&gt;&gt;&#xa;EventComponent" style="swimlane;fontStyle=1;align=center;verticalAlign=top;childLayout=stackLayout;horizontal=1;startSize=40;horizontalStack=0;resizeParent=1;resizeParentMax=0;resizeLast=0;collapsible=1;marginBottom=0;" parent="WIyWlLk6GJQsqaUBKTNV-1" vertex="1">
          <mxGeometry x="2270" y="1300" width="160" height="118" as="geometry" />
        </mxCell>
        <mxCell id="8rjHVLUGmRl6VgzejmVH-246" value="+ BOOKING_FROM&#xa;+ CHECK_BTN" style="text;strokeColor=none;fillColor=none;align=left;verticalAlign=top;spacingLeft=4;spacingRight=4;overflow=hidden;rotatable=0;points=[[0,0.5],[1,0.5]];portConstraint=eastwest;" parent="8rjHVLUGmRl6VgzejmVH-245" vertex="1">
          <mxGeometry y="40" width="160" height="70" as="geometry" />
        </mxCell>
        <mxCell id="8rjHVLUGmRl6VgzejmVH-247" value="" style="line;strokeWidth=1;fillColor=none;align=left;verticalAlign=middle;spacingTop=-1;spacingLeft=3;spacingRight=3;rotatable=0;labelPosition=right;points=[];portConstraint=eastwest;" parent="8rjHVLUGmRl6VgzejmVH-245" vertex="1">
          <mxGeometry y="110" width="160" height="8" as="geometry" />
        </mxCell>
        <mxCell id="8rjHVLUGmRl6VgzejmVH-249" value="" style="endArrow=block;dashed=1;endFill=0;endSize=12;html=1;rounded=0;exitX=-0.012;exitY=0.337;exitDx=0;exitDy=0;exitPerimeter=0;entryX=1;entryY=0.25;entryDx=0;entryDy=0;" parent="WIyWlLk6GJQsqaUBKTNV-1" source="8rjHVLUGmRl6VgzejmVH-243" target="8rjHVLUGmRl6VgzejmVH-121" edge="1">
          <mxGeometry width="160" relative="1" as="geometry">
            <mxPoint x="1890" y="1470" as="sourcePoint" />
            <mxPoint x="2110" y="1540" as="targetPoint" />
            <Array as="points">
              <mxPoint x="1910" y="1206" />
              <mxPoint x="1910" y="1729" />
            </Array>
          </mxGeometry>
        </mxCell>
        <mxCell id="8rjHVLUGmRl6VgzejmVH-250" value="" style="endArrow=block;dashed=1;endFill=0;endSize=12;html=1;rounded=0;exitX=-0.012;exitY=0.337;exitDx=0;exitDy=0;exitPerimeter=0;entryX=1;entryY=0.25;entryDx=0;entryDy=0;" parent="WIyWlLk6GJQsqaUBKTNV-1" edge="1">
          <mxGeometry width="160" relative="1" as="geometry">
            <mxPoint x="2270" y="1337.2900000000002" as="sourcePoint" />
            <mxPoint x="1681.92" y="1860.2" as="targetPoint" />
            <Array as="points">
              <mxPoint x="1960" y="1338" />
              <mxPoint x="1960" y="1860" />
            </Array>
          </mxGeometry>
        </mxCell>
        <mxCell id="8rjHVLUGmRl6VgzejmVH-251" value="這邊如果是一個enum class 繼承一個interface, 而那個interface有屬性的話，則每一個enum則需要各自實現此屬性，在這我們有一個value，則CLICK則會有一個value，我們會在設定成click，之後傳給tracker去傳遞" style="shape=callout;whiteSpace=wrap;html=1;perimeter=calloutPerimeter;shadow=1;fillColor=none;size=40;position=0.09;position2=0;align=left;" parent="WIyWlLk6GJQsqaUBKTNV-1" vertex="1">
          <mxGeometry x="1270" y="1460" width="309" height="130" as="geometry" />
        </mxCell>
        <mxCell id="8rjHVLUGmRl6VgzejmVH-252" value="最後會由enum class實現這個interface，主要每個屬性都有一個真正的事件name，以及這個屬性的唯一type。" style="shape=callout;whiteSpace=wrap;html=1;perimeter=calloutPerimeter;shadow=1;fillColor=none;size=40;position=0.09;position2=0;align=left;" parent="WIyWlLk6GJQsqaUBKTNV-1" vertex="1">
          <mxGeometry x="1401" y="1950" width="309" height="130" as="geometry" />
        </mxCell>
        <mxCell id="8rjHVLUGmRl6VgzejmVH-253" value="當我傳遞屬性數值，只能接受這五個類型，其他類型不可以傳遞，當我拿值時(getValue)會去判斷，哪一個值有存在" style="shape=callout;whiteSpace=wrap;html=1;perimeter=calloutPerimeter;shadow=1;fillColor=none;size=40;position=0.09;position2=0;align=left;" parent="WIyWlLk6GJQsqaUBKTNV-1" vertex="1">
          <mxGeometry x="1320" y="2450" width="290" height="100" as="geometry" />
        </mxCell>
        <mxCell id="8rjHVLUGmRl6VgzejmVH-254" value="有繼承interface，所以每一個enum則需要各自實現interface的屬性。" style="shape=callout;whiteSpace=wrap;html=1;perimeter=calloutPerimeter;shadow=1;fillColor=none;size=40;position=0.09;position2=0;align=left;" parent="WIyWlLk6GJQsqaUBKTNV-1" vertex="1">
          <mxGeometry x="2460" y="1160" width="309" height="130" as="geometry" />
        </mxCell>
        <mxCell id="8rjHVLUGmRl6VgzejmVH-257" value="" style="endArrow=block;dashed=1;endFill=0;endSize=12;html=1;rounded=0;exitX=1;exitY=0.5;exitDx=0;exitDy=0;entryX=0;entryY=0.5;entryDx=0;entryDy=0;" parent="WIyWlLk6GJQsqaUBKTNV-1" source="8rjHVLUGmRl6VgzejmVH-189" target="8rjHVLUGmRl6VgzejmVH-192" edge="1">
          <mxGeometry width="160" relative="1" as="geometry">
            <mxPoint x="3689.9999999999995" y="777.76" as="sourcePoint" />
            <mxPoint x="3738.02" y="776.24" as="targetPoint" />
          </mxGeometry>
        </mxCell>
        <mxCell id="8rjHVLUGmRl6VgzejmVH-258" value="在這初始化會做一件事&lt;br&gt;1. 把kkEventTracker放進來做使用。&lt;br&gt;&lt;span&gt;&lt;br&gt;當呼叫trackViewOrderPageBookingFormEvent方法，裏面&lt;/span&gt;會去初始化需要傳遞的每個屬性的姓名以及數值，最後傳遞給KKEventTracker去trackEvent" style="shape=callout;whiteSpace=wrap;html=1;perimeter=calloutPerimeter;shadow=1;fillColor=none;size=40;position=0.09;position2=0;align=left;" parent="WIyWlLk6GJQsqaUBKTNV-1" vertex="1">
          <mxGeometry x="3413" y="370" width="309" height="130" as="geometry" />
        </mxCell>
        <mxCell id="8rjHVLUGmRl6VgzejmVH-259" value="在這初始化會做三件事情&lt;br&gt;1. 把Tracker丟進來的kkTracker，依據介面變成IKKEventTracker傳遞進來。&lt;br&gt;2. 初始化OrderTracker，並把kkEventTracker傳遞進去。&lt;br&gt;2. 初始化ProductTracker，並把kkEventTracker傳遞進去。" style="shape=callout;whiteSpace=wrap;html=1;perimeter=calloutPerimeter;shadow=1;fillColor=none;size=40;position=0.09;position2=0;align=left;" parent="WIyWlLk6GJQsqaUBKTNV-1" vertex="1">
          <mxGeometry x="2980" y="90" width="309" height="140" as="geometry" />
        </mxCell>
        <mxCell id="8rjHVLUGmRl6VgzejmVH-260" value="在這初始化會做四件事情&lt;br&gt;1. 從外部拿取debugTool&lt;br&gt;2. 初始化kkTracker，把debugTool傳遞進去&lt;br&gt;3. 初始化eventTracker，把kkTracker傳遞進去&lt;br&gt;4.初始化userTracker，把kkTracker傳遞進去" style="shape=callout;whiteSpace=wrap;html=1;perimeter=calloutPerimeter;shadow=1;fillColor=none;size=40;position=0.09;position2=0;align=left;" parent="WIyWlLk6GJQsqaUBKTNV-1" vertex="1">
          <mxGeometry x="2680" y="-210" width="309" height="140" as="geometry" />
        </mxCell>
        <mxCell id="8rjHVLUGmRl6VgzejmVH-261" value="在這初始化會做一件事情&lt;br&gt;1. 把Tracker丟進來的kkTracker，依據介面變成IKKUserTracker傳遞進來。&lt;br&gt;&lt;br&gt;當初叫&lt;span&gt;setUserProfileProperties，&lt;/span&gt;裏面會去初始化需要傳遞的每個屬性的姓名以及數值，最後傳遞給KKUserTracker的setUserProfileProperties" style="shape=callout;whiteSpace=wrap;html=1;perimeter=calloutPerimeter;shadow=1;fillColor=none;size=40;position=0.09;position2=0;align=left;" parent="WIyWlLk6GJQsqaUBKTNV-1" vertex="1">
          <mxGeometry x="2989" y="948" width="309" height="140" as="geometry" />
        </mxCell>
      </root>
    </mxGraphModel>
  </diagram>
</mxfile>
